<?xml version="1.0" encoding="utf-8"?>
<!-- Generator: Adobe Illustrator 24.0.0, SVG Export Plug-In . SVG Version: 6.00 Build 0)  -->
<svg version="1.1" id="Слой_1" xmlns="http://www.w3.org/2000/svg" xmlns:xlink="http://www.w3.org/1999/xlink" x="0px" y="0px"
	 width="26px" height="27px" viewBox="0 0 26 27" style="enable-background:new 0 0 26 27;" xml:space="preserve">
<style type="text/css">
	.st0{fill:#041B71;}
</style>
<g>
	<path class="st0" d="M25.3,24.5c-0.1-0.3-0.2-0.6-0.4-0.8c-0.3-0.3-0.6-0.6-0.9-0.9c-0.3-0.3-0.7-0.7-1-1c-0.5-0.5-1-1-1.5-1.5
		c-0.5-0.5-1.1-1.1-1.6-1.6c-0.1-0.1-0.1-0.1-0.2-0.2c0.4-0.4,0.7-0.9,1-1.4c1.4-2.5,1.9-5.1,1.3-7.8c-0.4-1.9-1.3-3.5-2.5-4.9
		c-1.9-2-4.3-3.2-7.1-3.4c-2.1-0.2-4.1,0.3-6,1.4C3.8,3.8,2.1,6,1.3,8.8c-0.6,2.1-0.6,4.2,0.1,6.3c0.4,1.2,1.3,2.4,1.7,3.1v0
		c0.7,1,1.6,2,3.3,2.9c1.4,0.7,2.9,1.2,4.4,1.3c0.2,0,0.5,0,0.7,0c1.3,0,2.6-0.3,3.9-0.8c0.6-0.3,1.2-0.6,1.8-0.9
		c1.2,1.2,3,3.1,3.9,3.9c0.5,0.5,0.9,0.9,1.4,1.4c0.2,0.2,0.4,0.3,0.7,0.4c0.3,0.1,0.7,0.1,1-0.1c0.5-0.2,0.8-0.5,0.9-1
		C25.3,25.1,25.3,24.8,25.3,24.5z M16.7,18.1c-0.5,0.4-1,0.7-1.5,0.9c-0.4,0.2-0.7,0.3-1,0.4c-0.4,0.1-0.7,0.2-1.1,0.3
		c-0.2,0-0.4,0.1-0.6,0.1l-0.2,0c-0.2,0-0.3,0-0.5,0l-0.2,0v0c-0.1,0-0.2,0-0.3,0c-0.2,0-0.5,0-0.6,0c-0.2,0-0.5-0.1-0.8-0.1
		l-0.3-0.1c-0.4-0.1-0.9-0.2-1.2-0.4C7.9,19,7.5,18.8,7,18.5c-0.5-0.3-1.3-1.1-1.9-1.7c-0.1-0.1-0.6-0.9-0.7-1
		c0-0.1-0.1-0.2-0.1-0.3C4.2,15.2,4.1,15,4,14.8c-0.1-0.3-0.2-0.7-0.4-1.2c-0.1-0.2-0.1-0.4-0.1-0.6c0-0.1,0-0.2-0.1-0.3
		c-0.1-0.5-0.1-0.9-0.1-1.4c0-0.1,0-0.2,0-0.4c0-0.2,0.1-0.5,0.1-0.8l0-0.1c0.1-0.4,0.2-0.7,0.3-1C4,8.5,4.2,8.1,4.3,7.8
		c0.3-0.5,0.6-1,0.9-1.3C5.4,6.2,5.7,5.9,6,5.7l0.2-0.2c0.4-0.4,1-0.8,1.5-1C8,4.3,8.3,4.1,8.6,4C8.8,3.9,9,3.9,9.2,3.8
		c0.1,0,0.2-0.1,0.4-0.1c0.3-0.1,0.7-0.2,1.1-0.2c0.1,0,0.3,0,0.4,0c0.2,0,0.5,0,0.7,0c0.1,0,0.1,0,0.2,0c0.5,0,0.9,0.1,1.3,0.2
		C13.6,3.7,14,3.8,14.5,4c0.5,0.2,0.9,0.4,1.4,0.7L16,4.8c0.2,0.1,0.4,0.3,0.6,0.4C17,5.6,17.5,6,17.8,6.4c0.3,0.4,0.6,0.8,0.9,1.2
		c0.2,0.4,0.4,0.8,0.6,1.2c0.1,0.3,0.2,0.6,0.3,0.9l0,0.1c0.1,0.3,0.2,0.6,0.2,1c0,0.3,0,0.6,0,0.9c0,0.1,0,0.2,0,0.4
		c0,0,0,0.1,0,0.1c0,0.4-0.1,0.7-0.2,1.2c-0.1,0.4-0.2,0.9-0.4,1.3c-0.1,0.4-0.4,0.8-0.6,1.1c-0.2,0.3-0.3,0.6-0.6,0.9
		C17.6,17.2,17.2,17.7,16.7,18.1z"/>
</g>
</svg>
