<?xml version="1.0" encoding="utf-8"?>
<!-- Generator: Adobe Illustrator 24.0.0, SVG Export Plug-In . SVG Version: 6.00 Build 0)  -->
<svg version="1.1" id="Слой_1" xmlns="http://www.w3.org/2000/svg" xmlns:xlink="http://www.w3.org/1999/xlink" x="0px" y="0px"
	 width="36px" height="33px" viewBox="0 0 36 33" style="enable-background:new 0 0 36 33;" xml:space="preserve">
<style type="text/css">
	.st0{fill:#4D4C8A;stroke:#4D4C8A;stroke-miterlimit:10;}
</style>
<g>
	<path class="st0" d="M21,23.4c-1.9,0-3.7,0-5.6,0c0,2.8,0,5.5,0,8.2c-0.1,0-0.1,0-0.2,0c-2.8,0-5.6,0-8.5,0c-0.5,0-1-0.3-1.3-0.7
		C5.2,30.6,5,30.2,5,29.8c0-4.2,0-8.3,0-12.5c0-0.6,0-1.2,0-1.8c0.4,0,0.9,0,1.3,0c0.1,0,0.2,0.2,0.1,0.4c0,0,0,0.1,0,0.1
		c0,0.2,0.1,0.4,0.1,0.6c0,3.2,0,6.5,0,9.7c0,0.3,0,0.6,0,0.9c0,0.7,0,1.5,0,2.2c0,0.1,0,0.3,0,0.4c0,0.3,0.2,0.5,0.5,0.5
		c2.3,0,4.5,0,6.8,0c0.1,0,0.1,0,0.2,0c0-1.7,0-3.4,0-5.1c0-0.7,0-1.3,0-2c0-0.7,0.5-1.2,1.2-1.2c2,0,4,0,6,0c0.7,0,1.2,0.5,1.2,1.2
		c0,0.6,0,1.1,0,1.7c0,1.7,0,3.4,0,5.2c0,0.1,0,0.1,0,0.2c0.1,0,0.2,0,0.2,0c2.3,0,4.6,0,6.8,0c0.3,0,0.4-0.2,0.4-0.4
		c0-0.4,0-0.7,0-1.1c0-4.4,0-8.8,0-13.1c0,0,0,0,0-0.1c0.5,0,0.9,0,1.4,0c0,0.1,0,0.2,0,0.2c0,4.7,0,9.4,0,14.1c0,0.5-0.2,1-0.6,1.3
		c-0.4,0.3-0.8,0.5-1.4,0.5c-2.7,0-5.4,0-8.2,0c-0.1,0-0.2,0-0.3,0C21,28.9,21,26.2,21,23.4z"/>
	<path class="st0" d="M18.1,3.6c-0.6,0.5-1.2,0.9-1.7,1.4c-0.4,0.3-0.9,0.7-1.3,1c-0.4,0.3-0.8,0.7-1.2,1c-0.3,0.3-0.7,0.5-1.1,0.8
		c-0.5,0.4-1,0.8-1.5,1.2c-0.4,0.3-0.9,0.7-1.3,1c-0.5,0.4-1.1,0.8-1.6,1.3c-0.4,0.3-0.9,0.7-1.3,1c-0.6,0.4-1.1,0.9-1.7,1.3
		c-0.4,0.3-0.9,0.7-1.3,1c-0.4,0.3-0.8,0.6-1.2,0.9c-0.4,0.3-0.8,0.1-1-0.3c-0.2-0.4,0-0.7,0.3-0.9c0.5-0.4,1-0.8,1.6-1.2
		c0.5-0.4,1.1-0.9,1.6-1.3c0.4-0.3,0.9-0.7,1.3-1c0.5-0.4,1.1-0.9,1.6-1.3c0.4-0.3,0.8-0.7,1.3-1c0.6-0.4,1.2-0.9,1.7-1.3
		c0.5-0.4,1-0.8,1.6-1.3c0.8-0.6,1.5-1.2,2.3-1.8c0.6-0.5,1.2-1,1.9-1.5c0.2-0.2,0.5-0.4,0.7-0.6c0.2-0.2,0.6-0.2,0.9,0
		c0.6,0.5,1.2,0.9,1.8,1.4c0.6,0.4,1.1,0.9,1.7,1.3c0.4,0.3,0.9,0.7,1.3,1.1c0.4,0.3,0.9,0.7,1.3,1c0.3,0.3,0.6,0.5,1,0.8
		c0.3,0.2,0.6,0.5,0.9,0.7c0.4,0.4,0.9,0.7,1.3,1.1c0.4,0.3,0.9,0.7,1.3,1c0.5,0.4,1,0.9,1.6,1.3c0.3,0.2,0.6,0.5,0.9,0.7
		c0.5,0.4,0.9,0.7,1.4,1.1c0.3,0.3,0.7,0.5,1,0.8c0.2,0.2,0.4,0.4,0.4,0.7c0,0.4-0.6,0.9-1,0.6c-0.3-0.2-0.5-0.3-0.8-0.5
		c-0.3-0.2-0.6-0.5-1-0.8c-0.4-0.4-0.9-0.7-1.3-1.1c-0.3-0.2-0.6-0.5-0.9-0.7c-0.5-0.4-0.9-0.7-1.4-1.1c-0.3-0.2-0.6-0.4-0.9-0.7
		c-0.5-0.4-0.9-0.8-1.4-1.1c-0.4-0.3-0.9-0.7-1.3-1c-0.3-0.3-0.6-0.5-1-0.8C23,7.4,22.5,7,22,6.7c-0.5-0.4-0.9-0.7-1.4-1.1
		c-0.3-0.2-0.6-0.5-0.9-0.7c-0.5-0.4-0.9-0.7-1.4-1.1C18.3,3.7,18.2,3.7,18.1,3.6z"/>
	<path class="st0" d="M4.9,10.8c0-0.7,0-1.4,0-2c0-0.7,0-1.4,0-2.1c0-0.2-0.1-0.5-0.1-0.7c0-0.2,0-0.4,0-0.6C4.9,5,5,4.7,5.3,4.4
		c0.3-0.2,0.5-0.3,0.8-0.3c1.3,0,2.5,0,3.8,0c0.1,0,0.2,0,0.2,0.2c0,0.4,0,0.9,0,1.3c-1.2,0-2.5,0-3.8,0c0,0.1,0,0.2,0,0.2
		c0,1.3,0,2.5,0,3.8c0,0.1,0,0.2-0.1,0.3c-0.4,0.3-0.7,0.6-1.1,0.9C5,10.8,5,10.8,4.9,10.8z"/>
</g>
</svg>
