<?xml version="1.0" encoding="utf-8"?>
<!-- Generator: Adobe Illustrator 24.0.0, SVG Export Plug-In . SVG Version: 6.00 Build 0)  -->
<svg version="1.1" id="Слой_1" xmlns="http://www.w3.org/2000/svg" xmlns:xlink="http://www.w3.org/1999/xlink" x="0px" y="0px"
	 width="120px" height="120px" viewBox="0 0 120 120" style="enable-background:new 0 0 120 120;" xml:space="preserve">
<style type="text/css">
	.st0{opacity:0.19;fill:#FFFFFF;}
	.st1{fill:#FFFFFF;}
</style>
<circle class="st0" cx="60" cy="59.5" r="59.2"/>
<g>
	<path class="st1" d="M39.5,66.3c0-2-0.1-3.9,0-5.8c0.4-4.5,1.8-8.7,5.3-11.9c2.1-1.9,4.5-2.9,7.3-3.5c2.7-0.6,5.5-0.6,8.1-0.3
		c4.7,0.6,8.8,2.6,11.3,7.1c1.4,2.4,2.1,5,2.4,7.8c0.2,2.1,0.4,4.2,0,6.4c-0.1,0.3,0.2,0.8,0.4,0.9c3.9,2.9,4,8.6-0.2,11.3
		c-1.5,0.9-2,2.1-2.6,3.5c-1.8,4.5-4.6,8.1-9.1,10.3c-3,1.5-6.2,1.7-9.3,0.9c-3.6-0.9-6.4-3.2-8.6-6.2c-1.4-2-2.6-4-3.3-6.4
		c-0.2-0.7-0.7-1-1.4-1.3c-3.6-1.3-4.9-4.2-4.4-7.6C35.7,69,37.3,67.4,39.5,66.3z M51.3,59.6c-0.4,1-0.6,2.3-1.2,3.4
		c-1,1.9-2.6,3.3-4.6,4c-1.8,0.7-3.6,1.2-5.4,1.8c-1.4,0.5-2.1,1.7-2.3,3c-0.3,1.8,0.2,3.5,2,4.5c0.7,0.4,1.6,0.5,2.4,0.8
		c0.3,0.1,0.8,0.3,0.8,0.6c0.5,2.2,1.3,4.2,2.5,6.1c2,3.3,4.7,5.9,8.4,6.9c3.6,0.9,7.1,0,10-2.3c3.5-2.9,5.4-6.7,6.5-11.1
		c3-0.7,4.3-2.3,4.2-4.8c-0.1-2.2-1.5-3.6-3.7-3.6c-3.5,0-7,0.1-10.4-1.1c-2.4-0.9-4.5-2-6.2-3.9C53.1,62.5,52.2,60.9,51.3,59.6z"/>
	<path class="st1" d="M70.6,47.2c1.6-0.7,2.9-1.5,4.3-1.7c1.9-0.4,3.8-0.2,5.6,0.7c2.3,1.2,3.9,3.1,5.2,5.4c0.9,1.6,1.9,3.3,4.3,3.8
		c-1.1,0.8-1.8,1.5-2.6,2c-1.5,0.8-3,1.5-4.8,1.5c-3.2,0.1-5-2-5.8-5c-0.3-1.2-0.9-2.5-1.5-3.6c-0.7-1.1-1.4-1.1-2.4-0.4
		C72.1,49,71.5,48.2,70.6,47.2z"/>
	<path class="st1" d="M24,55.3c1.9-0.5,2.8-1.7,3.6-3.2c1.3-2.5,3-4.7,5.6-5.9c2.2-1.1,4.4-1.1,6.7-0.3c1,0.4,2,0.9,3.1,1.4
		c-0.7,1-1.4,1.8-2,2.6c-1.5-0.7-2.7-0.1-3.3,1.8c-0.6,1.6-1.1,3.2-1.8,4.7c-1,2.1-2.9,2.9-5.1,2.6c-2.5-0.3-4.7-1.4-6.5-3.1
		C24.2,55.7,24.2,55.6,24,55.3z"/>
</g>
</svg>
