<?xml version="1.0" encoding="utf-8"?>
<!-- Generator: Adobe Illustrator 24.0.0, SVG Export Plug-In . SVG Version: 6.00 Build 0)  -->
<svg version="1.1" id="Слой_1" xmlns="http://www.w3.org/2000/svg" xmlns:xlink="http://www.w3.org/1999/xlink" x="0px" y="0px"
	 width="31px" height="32px" viewBox="0 0 31 32" style="enable-background:new 0 0 31 32;" xml:space="preserve">
<style type="text/css">
	.st0{fill:#4D4C8A;}
</style>
<g>
	<path class="st0" d="M2.9,29.4c0.1,0,0.2,0,0.3,0c4.1,0,8.1,0,12.2,0c0.3,0,0.3,0,0.3,0.3c0,0.5,0,0.9,0,1.4c0,0.2-0.1,0.2-0.3,0.2
		c-1.7,0-3.4,0-5.1,0c-2.7,0-5.5,0-8.2,0c-0.7,0-1.2-0.6-1.2-1.1c0-9.3,0-18.7,0-28c0-0.5,0.5-1,1.1-1c0.2,0,0.5,0,0.7,0
		c7.8,0,15.5,0,23.3,0c0.5,0,0.9,0.2,1.1,0.6c0.1,0.2,0.1,0.4,0.1,0.6c0,1.1,0,2.2,0,3.3c0,3.6,0,7.2,0,10.8c0,0.1,0,0.1,0,0.2
		c-0.7,0-1.3,0-2,0c0-4.6,0-9.1,0-13.7c-7.4,0-14.9,0-22.3,0C2.9,11.9,2.9,20.6,2.9,29.4z"/>
	<path class="st0" d="M14,11c-2.8,0-5.5,0-8.3,0c-0.5,0-1.1-0.4-1.1-0.9c0-0.2-0.1-0.4-0.1-0.6c0-1.2,0-2.5,0-3.7
		c0-0.3,0-0.6,0.3-0.8c0.3-0.3,0.6-0.4,1-0.4c3.3,0,6.6,0,9.9,0c2.2,0,4.4,0,6.6,0c0.7,0,1.3,0.5,1.3,1.2c0,1.3,0,2.6,0,4
		c0,0.6-0.3,1.1-0.9,1.3c-0.1,0-0.2,0-0.3,0C19.6,11,16.8,11,14,11z M6.5,9.1c5,0,10,0,14.9,0c0-0.9,0-1.8,0-2.7c-5,0-10,0-14.9,0
		C6.5,7.3,6.5,8.2,6.5,9.1z"/>
	<path class="st0" d="M21.3,27.1c0.8-1,1.6-2.1,2.5-3.1c0.7-0.9,1.4-1.7,2.1-2.6c0.4-0.6,0.9-1.1,1.4-1.7c0.3-0.4,0.6-0.6,1.1-0.6
		c0.6,0,1.2,0.6,1.3,1.2c0,0.4-0.2,0.7-0.5,1c-0.4,0.5-0.7,0.9-1.1,1.4c-0.6,0.8-1.3,1.5-1.9,2.3c-0.5,0.7-1,1.3-1.6,2
		c-0.6,0.8-1.2,1.5-1.9,2.3c-0.2,0.2-0.4,0.5-0.6,0.6c-0.6,0.4-1.3,0.3-1.8-0.2c-0.8-0.8-1.5-1.6-2.3-2.4c-0.3-0.3-0.7-0.6-0.9-1
		c-0.4-0.5-0.4-1.1,0.2-1.6c0.3-0.3,0.7-0.4,1.2-0.4c0.3,0,0.5,0.2,0.7,0.4C19.8,25.6,20.6,26.3,21.3,27.1z"/>
	<path class="st0" d="M22.7,15.7c-5.8,0-11.5,0-17.2,0c0-0.6,0-1.2,0-1.9c0.1,0,0.2,0,0.2,0c5.6,0,11.1,0,16.7,0
		c0.2,0,0.3,0.1,0.3,0.3c0,0.5,0,0.9,0,1.4C22.7,15.6,22.7,15.6,22.7,15.7z"/>
	<path class="st0" d="M5.5,20.9c0-0.6,0-1.3,0-1.9c0.1,0,0.2,0,0.3,0c4.7,0,9.5,0,14.2,0c0.2,0,0.3,0.1,0.3,0.3c0,0.5,0,0.9,0,1.4
		c0,0.2-0.1,0.3-0.3,0.3c-1.4,0-2.8,0-4.1,0c-3.3,0-6.7,0-10,0C5.7,20.9,5.6,20.9,5.5,20.9z"/>
	<path class="st0" d="M13.9,24.2c0,0.6,0,1.1,0,1.7c0,0.2-0.1,0.2-0.2,0.2c-0.8,0-1.7,0-2.5,0c-1.8,0-3.6,0-5.5,0
		c-0.1,0-0.1,0-0.2,0c0-0.6,0-1.2,0-1.9C8.3,24.2,11.1,24.2,13.9,24.2z"/>
</g>
</svg>
