<?xml version="1.0" encoding="utf-8"?>
<!-- Generator: Adobe Illustrator 24.0.0, SVG Export Plug-In . SVG Version: 6.00 Build 0)  -->
<svg version="1.1" id="Слой_1" xmlns="http://www.w3.org/2000/svg" xmlns:xlink="http://www.w3.org/1999/xlink" x="0px" y="0px"
	 width="120px" height="120px" viewBox="0 0 120 120" style="enable-background:new 0 0 120 120;" xml:space="preserve">
<style type="text/css">
	.st0{opacity:0.19;fill:#FFFFFF;}
	.st1{fill:#FFFFFF;}
</style>
<circle class="st0" cx="60" cy="59.5" r="59.2"/>
<g>
	<path class="st1" d="M57.3,51.7c3.5-4.8,6.9-9.6,10.4-14.5c2.5,3.8,4.9,7.4,7.5,11.3c-4.2,1.6-8.1,3.1-12.3,4.7c0.4,0,0.7,0,1,0
		c4.8,0,9.5,0,14.3,0c1.2,0,2.1,0.7,2.1,2c0,3.7,0,7.3,0,11c0,1.3-0.7,1.9-2.1,1.9c-0.6,0-1.3,0-2,0c0,0.5,0,0.9,0,1.2
		c0,5.2,0,10.4,0,15.7c0,1.3-0.6,1.9-1.9,1.9c-11.5,0-23,0-34.5,0c-1.4,0-2-0.6-2-2.1c0-5.5,0-11,0-16.7c-0.7,0-1.3,0-1.9,0
		c-1.4,0-1.9-0.5-1.9-1.9c0-3.7,0-7.5,0-11.2c0-1.3,0.5-1.8,1.9-1.8c4.9,0,9.7,0,14.6,0c0.4,0,0.8,0,1.4,0
		c-4.3-1.6-8.3-3.2-12.4-4.7c0.7-1.1,1.3-2.1,2-3.1c1.6-2.5,3.3-4.9,4.9-7.4c0.3-0.5,0.5-0.8,1.1,0c1.9,2.8,3.9,5.5,5.9,8.2
		C54.6,48,55.9,49.8,57.3,51.7z M53,83.4c0-5.2,0-10.2,0-15.2c-4,0-7.8,0-11.7,0c0,5.1,0,10.1,0,15.2C45.3,83.4,49.1,83.4,53,83.4z
		 M72.9,83.3c0-5.1,0-10.1,0-15.1c-4,0-7.9,0-11.9,0c0,4.9,0,9.7,0,14.5c0,0.6,0.3,0.8,0.8,0.8c3.4,0,6.8,0,10.2,0
		C72.3,83.5,72.6,83.4,72.9,83.3z M53.1,56.7c-5.3,0-10.6,0-15.9,0c0,2.7,0,5.3,0,7.9c5.3,0,10.6,0,15.9,0
		C53.1,62,53.1,59.4,53.1,56.7z M76.7,64.8c0-2.8,0-5.4,0-8.1c-5.1,0-10.1,0-15.1,0C61,56.6,61,57,61,57.5c0,2.1,0,4.3,0,6.4
		c0,0.6,0.2,0.9,0.8,0.9C66.7,64.7,71.7,64.8,76.7,64.8z"/>
</g>
</svg>
