<?xml version="1.0" encoding="utf-8"?>
<!-- Generator: Adobe Illustrator 24.0.0, SVG Export Plug-In . SVG Version: 6.00 Build 0)  -->
<svg version="1.1" id="Слой_1" xmlns="http://www.w3.org/2000/svg" xmlns:xlink="http://www.w3.org/1999/xlink" x="0px" y="0px"
	 width="56px" height="62px" viewBox="0 0 56 62" style="enable-background:new 0 0 56 62;" xml:space="preserve">
<style type="text/css">
	.st0{fill:#FFFFFF;}
</style>
<g>
	<path class="st0" d="M19.4,40c-1.5-1.5-3-2.8-4.3-4.3c-2.6-2.9-4.5-6.3-5.6-10c-1-3.4-1-6.9,0.1-10.3c1.1-3.2,2.9-6,5.3-8.3
		c2.3-2.2,4.9-3.9,7.9-5.1c2.9-1.1,6-1.5,9-0.1c0.8,0.3,1.6,0.8,2.1,1.4c1.2,1.4,3.1,1.9,4.6,3c2,1.6,3.1,3.7,3.8,6
		c1.1,3.4,1.6,7,1.4,10.6c-0.1,2.3-0.5,4.5-1.5,6.6c-1.1,2.2-2.3,4.4-3.6,6.5c-0.8,1.2-1.9,2.3-3,3.5c1.2,0.4,2.3,0.8,3.4,1.1
		c2.5,0.8,5.1,1.6,7.6,2.5c1.3,0.5,2.7,1,4,1.5c2,0.8,2.9,2.6,3.6,4.5c0.4,1.1,0.5,2.4,0.8,3.5c0.5,2-0.4,4.1-2.2,5.1
		c-2.1,1.1-4.4,1.6-6.7,2.1c-8.8,1.7-17.7,1.2-26.6,1.2c-2.9,0-5.9-0.4-8.8-0.9c-2.4-0.5-4.9-1-7.1-2.3c-2.2-1.2-3.2-2.8-2.9-5.2
		C1,50.8,1.2,49,2.1,47.4c0.8-1.5,2-2.6,3.6-3.2c2.3-0.8,4.7-1.5,7-2.2C14.8,41.3,17,40.7,19.4,40z M40,20.8
		c-0.1-0.1-0.2-0.1-0.4-0.2c-0.4,0.4-0.8,0.7-1.3,1.1c-0.3,0.2-0.6,0.3-0.9,0.5c-0.1-0.3-0.4-0.6-0.4-1c-0.3-2.7-0.8-5.4-2-7.9
		c-0.5-1.1-1.2-2-2.4-2.4c-2-0.6-4-0.1-5.7,0.8c-4.3,2.3-7.2,5.8-8.6,10.6c-0.7,2.4-0.3,4.7,0.5,7c0.8,2.3,2.4,3.8,4.2,5.3
		c1.2,1,2.6,1.9,4.3,2c3,0.1,5-1.7,7-3.6c1.6-1.5,2.4-3.5,2.9-5.7c0.1-0.4,0.3-1,0.6-1.2C39.8,24.7,39.7,22.7,40,20.8z M21.9,36.2
		c0.3,2.3-0.2,4.3-1.9,6.2c-1,1.2-1.6,2.7-1,4.5c0.7,1.9,2,3.2,3.6,4.1c2,1.2,4,2.9,6.7,1.5c1.7-0.9,3.5-1.6,4.9-3
		c2.1-2.1,2.4-4.3,1.1-6.9c-0.7-1.3-1.8-2.4-1.6-4.1c0.1-0.8,0.1-1.6,0.1-2.4c-1,0.6-1.8,1.2-2.8,1.6c-1.4,0.6-2.8,1.3-4.3,0.7
		C25.1,37.8,23.6,37,21.9,36.2z"/>
</g>
</svg>
