<?xml version="1.0" encoding="utf-8"?>
<!-- Generator: Adobe Illustrator 24.0.0, SVG Export Plug-In . SVG Version: 6.00 Build 0)  -->
<svg version="1.1" id="Слой_1" xmlns="http://www.w3.org/2000/svg" xmlns:xlink="http://www.w3.org/1999/xlink" x="0px" y="0px"
	 width="120px" height="120px" viewBox="0 0 120 120" style="enable-background:new 0 0 120 120;" xml:space="preserve">
<style type="text/css">
	.st0{opacity:0.19;fill:#FFFFFF;}
	.st1{fill:#FFFFFF;}
</style>
<circle class="st0" cx="60" cy="60" r="59.2"/>
<g>
	<path class="st1" d="M49,52.7c-1.1,0-2,0-3,0c-0.7,0-1.5,0-1.9-0.8c-0.4-0.8-0.1-1.5,0.4-2.1c3.6-5.7,7.1-11.3,10.7-17
		c1.1-1.8,2.7-1.8,3.9-0.1c3,4.3,5.9,8.7,8.9,13c0.9,1.3,1.8,2.6,2.7,3.9c0.2,0.3,0.4,0.6,0.5,0.9c0.4,1,0,1.9-1.2,2
		c-1,0.1-2,0.1-2.9,0.1c-0.3,0-0.5,0-0.9,0c0,1.9,0,3.8,0,5.6c0,2.4-1.4,3.8-3.8,3.8c-3.2,0-6.4,0-9.7,0c-2.2,0-3.6-1.4-3.6-3.6
		C49,56.7,49,54.8,49,52.7z"/>
	<path class="st1" d="M44.5,79.2c-0.1-5.9,3.5-11,8.9-12.3c6.7-1.7,13.2,2.4,14.6,9.2c0.9,4.4,0.3,8.5-2.7,12
		c-2.5,3-5.9,4.2-9.7,3.9c-6.3-0.4-10.2-5.1-10.9-10.4C44.6,80.8,44.6,80,44.5,79.2z M63,79.4c0.1,0,0.1,0,0.2-0.1
		c-0.4-1.4-0.6-2.9-1.1-4.2c-1-2.4-2.9-3.8-5.6-3.8c-2.7,0-4.6,1.2-5.7,3.6c-1.4,3-1.3,6.1,0.1,9.1c2.1,4.3,7.9,4.1,10.2,1.2
		C62.5,83.4,62.9,81.5,63,79.4z"/>
	<path class="st1" d="M75.7,83.3c0,2.2,0,4.1,0,6c0,2-1.9,3.2-3.7,2.3c-1-0.5-1.4-1.3-1.4-2.3c0-3.1,0-6.2,0-9.3c0-3.4,0-6.9,0-10.3
		c0-1.6,0.8-2.6,2.5-2.7c2.6,0,5.2-0.1,7.8,0.1c4.3,0.4,7.3,3.8,7.4,8.1c0,4.2-2.9,7.5-7.2,8C79.3,83.4,77.6,83.3,75.7,83.3z
		 M75.8,78.9c1.3,0,2.5,0,3.8,0c1.8-0.1,3.1-1.3,3.3-3.1c0.3-1.8-0.7-3.7-2.4-4.1c-1.5-0.3-3.1-0.2-4.7-0.3
		C75.8,74,75.8,76.4,75.8,78.9z"/>
	<path class="st1" d="M33,71.7c-1.3,0-2.5,0-3.6,0c-1.6,0-2.4-0.8-2.4-2.2c0-1.6,0.8-2.5,2.4-2.5c4.2,0,8.3,0,12.5,0
		c1.5,0,2.4,1,2.4,2.5c0,1.4-0.9,2.2-2.4,2.2c-1.2,0-2.3,0-3.7,0c0,0.3,0,0.7,0,1c0,5.3,0,10.6,0,15.9c0,0.5,0,0.9-0.1,1.4
		c-0.3,1.2-1.2,1.9-2.5,1.8c-1.3,0-2.2-0.7-2.4-1.9C33,89.5,33,89,33,88.6c0-5.3,0-10.6,0-15.9C33,72.4,33,72.1,33,71.7z"/>
</g>
</svg>
