<?xml version="1.0" encoding="utf-8"?>
<!-- Generator: Adobe Illustrator 24.0.0, SVG Export Plug-In . SVG Version: 6.00 Build 0)  -->
<svg version="1.1" id="Слой_1" xmlns="http://www.w3.org/2000/svg" xmlns:xlink="http://www.w3.org/1999/xlink" x="0px" y="0px"
	 width="120px" height="120px" viewBox="0 0 120 120" style="enable-background:new 0 0 120 120;" xml:space="preserve">
<style type="text/css">
	.st0{opacity:0.19;fill:#FFFFFF;}
	.st1{fill:#FFFFFF;}
</style>
<circle class="st0" cx="60" cy="59.5" r="59.2"/>
<g>
	<path class="st1" d="M35.1,81.4c-0.7,0.4-1.4,0.9-2,1.2c-0.4,0.2-0.8,0.5-1.2,0.5c-0.9-0.1-1.4,0.4-1.8,1c-2.1,2.5-2.6,5.3-2,8.4
		c0.1,0.3,0.1,0.5,0.2,0.9c-0.9,0-1.6,0-2.5,0c-0.6-3-0.5-5.9,1-8.7c0.5-0.9,1.1-1.7,1.7-2.4c0.5-0.7,1.2-1.1,1.4-2.1
		c0.1-0.4,0.5-0.7,0.9-1c0.7-0.5,1.4-0.9,2.1-1.3c-0.1-0.2-0.2-0.4-0.3-0.6c-0.8-1.3-0.7-1.6,0.5-2.4c9.7-6.7,19.5-13.5,29.2-20.2
		c0.2-0.1,0.4-0.2,0.6-0.4c0.3,4.6,2.4,8,6.5,10.3c-1.6,0.9-3.2,1.8-4.7,2.7c-8.8,5-17.7,10.1-26.5,15.1c-0.2,0.1-0.4,0.2-0.6,0.3
		c-0.9,0.5-1.4,0.4-1.9-0.5C35.5,81.9,35.3,81.7,35.1,81.4z M53.9,68.8c0.4-0.2,0.7-0.2,0.9-0.4c1.4-0.9,2.8-1.7,4.1-2.6
		c0.7-0.4,0.9-1.2,0.6-1.8c-0.3-0.6-1.1-0.9-1.7-0.6c-1.5,0.9-3.1,1.9-4.5,2.9c-0.3,0.2-0.6,1-0.4,1.3C53,68.1,53.5,68.5,53.9,68.8z
		"/>
	<path class="st1" d="M86.9,53c0,2.2-0.7,4.3-1.9,6.1c-0.3,0.4-0.5,0.5-1,0.4c-6.6-1.4-11.3-7.9-10.6-14.7c0-0.4,0.2-0.8,0.2-1.3
		c0-1,0.6-1.2,1.5-1.3c5.9-0.4,10.6,3.2,11.7,9C86.9,51.9,86.8,52.5,86.9,53z"/>
	<path class="st1" d="M82.5,61.8c-3.9,2.6-7.9,2.9-11.9,0.5c-4-2.3-5.7-6-5.2-10.6c0.4-3.6,2.4-6.3,5.6-8.2
		C70.4,52.5,74.2,58.5,82.5,61.8z"/>
	<path class="st1" d="M58,65.4c-0.1,0.1-0.3,0.4-0.5,0.5c-0.7,0.5-1.4,0.9-2.2,1.4c-0.4,0.3-0.9,0.4-1.1-0.2
		c-0.1-0.2,0.1-0.8,0.4-0.9c0.7-0.5,1.5-1,2.2-1.4C57.4,64.5,58,64.8,58,65.4z"/>
</g>
</svg>
