<?xml version="1.0" encoding="utf-8"?>
<!-- Generator: Adobe Illustrator 24.0.0, SVG Export Plug-In . SVG Version: 6.00 Build 0)  -->
<svg version="1.1" id="Слой_1" xmlns="http://www.w3.org/2000/svg" xmlns:xlink="http://www.w3.org/1999/xlink" x="0px" y="0px"
	 width="120px" height="120px" viewBox="0 0 120 120" style="enable-background:new 0 0 120 120;" xml:space="preserve">
<style type="text/css">
	.st0{opacity:0.19;fill:#FFFFFF;}
	.st1{fill:#FFFFFF;}
</style>
<circle class="st0" cx="60" cy="59.5" r="59.2"/>
<path class="st1" d="M57.6,85.1c-1.1,0.5-2.2,1.1-3.3,1.6c-1.4,0.7-2.7,1.5-4,2.2c-1.4,0.8-2.9,1.5-4.4,2.2c-1,0.5-1.9,1.1-2.8,1.5
	c-1,0.4-1.9,0.6-3,0.3c-1.7-0.6-2.8-2.6-2.4-4.4c0.3-1.5,0.5-3,0.7-4.4c0.2-1.4,0.5-2.7,0.7-4.1c0.2-1.3,0.5-2.7,0.7-4
	c0.2-1,0.4-1.9,0.6-2.9c0.1-0.4-0.1-0.6-0.4-0.9c-2.3-2.2-4.5-4.3-6.7-6.5c-1.2-1.2-2.4-2.4-3.6-3.6c-0.8-0.7-1.5-1.4-1.9-2.4
	c-0.2-0.4-0.3-0.9-0.3-1.3c0-1.5,1-2.9,2.5-3.4c0.6-0.2,1.2-0.2,1.7-0.3c1-0.2,2-0.4,3-0.5c0.3-0.1,0.7-0.1,1-0.1c1-0.1,2-0.2,3-0.4
	c1-0.2,2.1-0.3,3.1-0.5c0.4-0.1,0.8-0.1,1.2-0.2c1-0.1,2.1-0.2,3.1-0.3c0.9-0.1,1.2-0.7,1.5-1.4c0.7-1.6,1.5-3.1,2.3-4.6
	c0.5-1,1-2.1,1.5-3.1c0.6-1.3,1.3-2.6,2-3.9c0.4-0.8,0.7-1.5,1.1-2.2c0.4-0.8,1.1-1.3,2-1.6c1.6-0.5,2.9-0.1,3.9,1.2
	c0.5,0.7,0.9,1.5,1.3,2.3c0.5,1,1,2,1.5,3c0.4,0.8,0.8,1.6,1.2,2.4c0.6,1.1,1.1,2.2,1.7,3.3c0.6,1.3,1.3,2.6,1.9,3.9
	c0.3,0.7,0.9,0.7,1.5,0.8c1.3,0.2,2.7,0.3,4,0.5c1.5,0.2,3,0.4,4.6,0.7c1,0.2,2,0.4,3,0.6c0.4,0.1,0.8,0.1,1.2,0.1
	c0.8,0.1,1.6,0.2,2.5,0.4c1.3,0.2,2.4,1,2.9,2.5c0.6,1.6,0,2.9-1.1,4c-2.6,2.6-5.3,5.2-7.9,7.8c-1.1,1.1-2.2,2.1-3.4,3.2
	c-0.3,0.3-0.4,0.6-0.3,1c0.1,0.6,0.2,1.3,0.3,1.9c0.2,0.8,0.4,1.7,0.5,2.5c0,0.2,0,0.5,0.1,0.7c0.2,1.3,0.4,2.6,0.7,3.9
	c0.2,1.2,0.5,2.3,0.6,3.5c0.2,1.5,0.5,3,0.4,4.5c0,1.2-0.8,2.1-2,2.7c-0.7,0.4-1.5,0.5-2.3,0.3c-0.6-0.2-1.1-0.4-1.7-0.7
	c-1.5-0.8-3-1.6-4.5-2.4c-1.8-1-3.6-2-5.4-2.9C60.3,86.5,59,85.8,57.6,85.1z"/>
</svg>
