<?xml version="1.0" encoding="utf-8"?>
<!-- Generator: Adobe Illustrator 24.0.0, SVG Export Plug-In . SVG Version: 6.00 Build 0)  -->
<svg version="1.1" id="Слой_1" xmlns="http://www.w3.org/2000/svg" xmlns:xlink="http://www.w3.org/1999/xlink" x="0px" y="0px"
	 width="120px" height="120px" viewBox="0 0 120 120" style="enable-background:new 0 0 120 120;" xml:space="preserve">
<style type="text/css">
	.st0{opacity:0.19;fill:#FFFFFF;}
	.st1{fill:#FFFFFF;}
</style>
<circle class="st0" cx="60" cy="59.5" r="59.2"/>
<path class="st1" d="M51.7,54.3c-2.4-2.4-4.6-4.7-6.9-6.9c-0.2-0.2-0.4-0.4-0.6-0.7c-0.3-0.4-0.2-1,0.2-1.2c0.3-0.2,0.8-0.1,1.2,0
	c0.2,0,0.3,0.3,0.5,0.4c2.3,2.3,4.6,4.6,6.9,6.9c0.2,0.2,0.4,0.4,0.7,0.6c0.8-0.8,1.5-1.6,2.3-2.3c3.1-3.1,6.3-6.3,9.4-9.4
	c0.3-0.3,0.7-0.6,1.2-0.8c0.7-0.2,1.2,0.4,0.9,1.1c-0.2,0.4-0.5,0.8-0.8,1.2c-3.6,3.6-7.1,7.1-10.7,10.7c-0.1,0.1-0.2,0.2-0.4,0.5
	c0.4,0,0.7,0,1,0c8.6,0,17.1,0,25.7,0c0.7,0,1.5,0,2.2,0.3c1.8,0.7,2.7,2.1,2.7,4c0,9.4,0,18.8,0,28.2c0,2.5-1.8,4.2-4.3,4.2
	c-17.3,0-34.5,0-51.8,0c-2.5,0-4.2-1.8-4.2-4.3c0-6.8,0-13.5,0-20.3c0-2.5,0-5.1,0-7.6c0-2.5,1.6-4.2,4-4.4c0.6,0,1.2,0,1.8,0
	c6.1,0,12.2,0,18.3,0C51,54.3,51.3,54.3,51.7,54.3z M51.9,86.9c5.4,0,10.8,0,16.3,0c2.9,0,5-2.1,5-5c0-6.1,0-12.2,0-18.3
	c0-3.1-2.1-5.1-5.2-5.1c-10.7,0-21.4,0-32.1,0c-3.1,0-5.1,2-5.1,5.1c0,6,0,12.1,0,18.1c0,3.3,2,5.2,5.3,5.2
	C41.3,86.9,46.6,86.9,51.9,86.9z M79.5,78.8c1.5,0,2.8-1.3,2.8-2.8c0-1.4-1.3-2.8-2.8-2.8c-1.5,0-2.8,1.3-2.8,2.7
	C76.7,77.5,78,78.8,79.5,78.8z M79.5,72c1.5,0,2.8-1.3,2.8-2.7c0-1.5-1.3-2.8-2.7-2.8c-1.5,0-2.8,1.2-2.8,2.7
	C76.7,70.6,78,71.9,79.5,72z"/>
</svg>
