<?xml version="1.0" encoding="utf-8"?>
<!-- Generator: Adobe Illustrator 24.0.0, SVG Export Plug-In . SVG Version: 6.00 Build 0)  -->
<svg version="1.1" id="Слой_1" xmlns="http://www.w3.org/2000/svg" xmlns:xlink="http://www.w3.org/1999/xlink" x="0px" y="0px"
	 width="120px" height="120px" viewBox="0 0 120 120" style="enable-background:new 0 0 120 120;" xml:space="preserve">
<style type="text/css">
	.st0{opacity:0.19;fill:#FFFFFF;}
	.st1{fill:#FFFFFF;}
</style>
<circle class="st0" cx="60" cy="59.5" r="59.2"/>
<g>
	<path class="st1" d="M66.3,75.6c0.1,0.3,0.3,0.6,0.3,0.8c0,3.6,0,7.1,0,10.7c0,1.9-1.3,3.2-3.2,3.2c-9.7,0-19.4,0-29,0
		c-1.6,0-2.7-0.8-3.2-2.4c-0.6,1-1.4,1.6-2.6,1.6c-1.2,0-2.2-0.8-2.5-2c0-0.2-0.1-0.3-0.1-0.5c0-5.1,0-10.3,0-15.4
		c0-1.4,1-2.3,2.3-2.5c0.5-0.1,1,0.1,1.5,0.2C24,64,25.7,56,30,52.5c4.4-3.6,12.2-3.7,16.4,2.9c2-10.9,12.3-15.5,20-14.1
		C74.8,42.8,80.9,49.7,81,58C81.2,66.6,75.2,74.1,66.3,75.6z M40.9,64.9c0.2,0.1,0.4,0.2,0.7,0.3c1.2,0.7,2.7,0.5,3.8-0.4
		c1-1,1.3-2.5,0.6-3.8c-0.7-1.3-2.1-1.9-3.5-1.5c-1.3,0.3-2.4,1.6-2.3,3C40.2,63.3,40.6,64.1,40.9,64.9c-1-1-2.1-1.3-3.4-0.8
		c-1.2,0.5-1.9,1.4-2,2.7c-0.1,1.4,0.8,2.7,2.2,3.2c1.3,0.4,2.8-0.1,3.6-1.3C42.1,67.6,42,66.2,40.9,64.9z M32.9,57
		c0.2,0.1,0.4,0.2,0.6,0.3c1.4,0.8,3.1,0.5,4.1-0.8c1-1.3,0.8-3.1-0.4-4.2c-1.2-1.1-3-1.1-4.2-0.1c-1.2,1.1-1.5,2.8-0.5,4.2
		C32.8,56.6,32.9,56.8,32.9,57c-1.2-1.1-2.5-1.3-3.8-0.5c-1.2,0.7-1.8,2.1-1.5,3.3c0.3,1.3,1.3,2.3,2.5,2.5c1.4,0.2,2.6-0.4,3.3-1.5
		C34.1,59.5,34,58.2,32.9,57z M53.6,50.7c-2.8,0-5,2.2-5,5c0,2.8,2.3,5.1,5,5c2.7,0,5-2.3,5-5C58.7,52.9,56.4,50.7,53.6,50.7z
		 M66.4,63.4c-2.8,0-5,2.2-5,5c0,2.8,2.2,5,5,5c2.8,0,5-2.2,5-5C71.4,65.6,69.2,63.4,66.4,63.4z M73.6,66.1c2.8,0,5.1-2.2,5.1-5
		c0-2.8-2.3-5.1-5.1-5c-2.7,0-5,2.3-5,5C68.5,63.9,70.8,66.1,73.6,66.1z M65.9,51.1c0,2.8,2.3,5,5.1,5c2.7,0,5-2.3,4.9-5.1
		c0-2.8-2.3-5-5.1-5C68.1,46.1,65.9,48.4,65.9,51.1z M60.9,53.4c2.8,0,5-2.2,5-5c0-2.8-2.3-5.1-5-5c-2.7,0-5,2.3-5,5
		C55.8,51.2,58.1,53.4,60.9,53.4z M56.3,70.7c2.8,0,5-2.2,5-5c0-2.7-2.2-5-5-5c-2.7,0-5.1,2.3-5.1,5C51.3,68.5,53.5,70.7,56.3,70.7z
		 M38.4,56.2c0,1.7,1.3,3.1,3.1,3.2c1.7,0.1,3.2-1.4,3.2-3.1c0-1.7-1.4-3.2-3.1-3.2C39.8,53.1,38.4,54.5,38.4,56.2z M35.5,65.4
		c0-1.7-1.4-3.1-3.1-3.1c-1.7,0-3.2,1.4-3.2,3.2c0,1.7,1.4,3.1,3.1,3.1C34.1,68.6,35.5,67.1,35.5,65.4z M66.1,57.7
		c0.7-0.8,0.8-1.4,0.2-2c-0.5-0.5-1.2-0.5-2.1,0.3c-0.2-1-0.8-1.4-1.5-1.2c-0.7,0.2-1,0.8-0.9,1.8c-1-0.2-1.6,0.2-1.8,0.9
		c-0.2,0.7,0.3,1.2,1.2,1.6c-0.7,0.8-0.8,1.4-0.3,2c0.6,0.6,1.2,0.5,2.1-0.2c0.3,1,0.7,1.3,1.5,1.2c0.8-0.1,1.1-0.6,1-1.8
		c0.9,0.2,1.5-0.1,1.8-0.8C67.5,58.7,67.1,58.2,66.1,57.7z M42,70.7c2.3,0,4.6,0,6.9,0c0.9,0,1.9,0.2,2.7,0.2
		c-1.8-1.7-3.3-3.9-4.3-6.6C46.2,67.1,44.5,69.1,42,70.7z M36.4,62.7c0.4,0.1,0.8,0.4,1.1,0.3c0.3-0.1,0.5-0.5,0.7-0.9
		c0.3-0.2,0.8-0.5,0.9-0.8c0.1-0.3-0.3-0.7-0.4-1c0-0.4,0.1-1-0.1-1.2c-0.3-0.2-0.8-0.2-1.2-0.2c-0.3-0.2-0.8-0.5-1-0.4
		c-0.3,0.1-0.6,0.6-0.8,0.9c-0.3,0.2-0.8,0.5-0.8,0.8c-0.1,0.3,0.3,0.7,0.4,0.9c0,0.5-0.1,1,0.1,1.2C35.5,62.7,36,62.6,36.4,62.7z
		 M30.8,69.9c0.2,0.8,0.4,1.6,0.6,2.2c0.3-0.4,0.8-0.8,1.2-1.3C32.1,70.5,31.4,70.2,30.8,69.9z"/>
	<path class="st1" d="M89.4,92.9c-1.7,0-3.3,0-5,0c-0.2,0-0.4-0.1-0.6-0.3c-0.4-0.3-0.8-0.6-1.2-0.9c-2.2-2-4.7-3.4-7.7-4
		c-1-0.2-1.9-0.6-2.9-1c-0.9-0.4-1.8-0.6-2.8-0.5c-1.3,0.1-1.9-0.4-1.9-1.7c-0.1-2.2-0.1-4.4,0-6.6c0.1-1.3,0.6-1.7,1.9-1.8
		c0.7,0,1.6,0,2.2-0.4c1.6-0.8,3.3-0.8,5-0.6c1.8,0.2,3.1-0.3,4.3-1.6c0.8-0.9,1.9-1.6,2.8-2.4c0.2-0.2,0.5-0.4,0.8-0.4
		c1.6,0,3.2,0,4.9,0C89.4,78.1,89.4,85.4,89.4,92.9z"/>
	<path class="st1" d="M62,58.8c0.1-0.4,0.3-1,0.5-1.6c0.5-0.1,1-0.3,1.5-0.4c0.4,0.4,0.8,0.8,1.2,1.2c-0.1,0.4-0.3,1-0.5,1.6
		c-0.4,0.1-1,0.3-1.5,0.4C62.9,59.7,62.4,59.2,62,58.8z"/>
	<path class="st1" d="M37.9,60.6c-0.1,0.3-0.2,0.6-0.3,1c-0.3,0.1-0.6,0.2-1,0.3c-0.2-0.2-0.5-0.5-0.7-0.8c0.1-0.2,0.2-0.6,0.3-0.9
		c0.2-0.1,0.6-0.1,0.8-0.2c0.2,0.2,0.4,0.5,0.6,0.8C37.8,60.7,37.9,60.6,37.9,60.6z"/>
</g>
</svg>
