<?xml version="1.0" encoding="utf-8"?>
<!-- Generator: Adobe Illustrator 24.0.0, SVG Export Plug-In . SVG Version: 6.00 Build 0)  -->
<svg version="1.1" id="Слой_1" xmlns="http://www.w3.org/2000/svg" xmlns:xlink="http://www.w3.org/1999/xlink" x="0px" y="0px"
	 width="120px" height="120px" viewBox="0 0 120 120" style="enable-background:new 0 0 120 120;" xml:space="preserve">
<style type="text/css">
	.st0{opacity:0.19;fill:#FFFFFF;}
	.st1{fill:#FFFFFF;}
</style>
<circle class="st0" cx="60" cy="59.5" r="59.2"/>
<g>
	<path class="st1" d="M62,64.4c-0.6,0.6-1,1.1-1.6,1.7c-1.2-1.2-2.4-2.4-3.5-3.7c-0.5,0.5-1,1-1.5,1.4c-0.5-0.5-1-1-1.5-1.5
		c0.4-0.5,0.9-0.9,1.3-1.4c-0.6-0.6-1.2-1.1-1.8-1.7c-0.5,0.5-1,1.1-1.7,1.8c0.4,0.4,0.8,0.9,1.3,1.3c-0.5,0.5-1.5,1.5-1.5,1.5
		s-4.5-4.5-4.6-4.7c-0.6,0.6-1,1-1.5,1.4c-0.5-0.5-0.9-1-1.4-1.6c0.3-0.4,0.8-0.8,1.2-1.2c-0.6-0.6-1.1-1.2-1.7-1.7
		c-0.5,0.5-1.1,1.1-1.7,1.8c0.4,0.3,0.9,0.7,1.5,1.1c-0.7,0.6-1.2,1.1-1.8,1.7c-0.3-0.4-0.7-0.9-1.2-1.5c-0.9,1-1.7,1.9-2.4,2.7
		c-0.7-0.6-1.1-1.1-1.7-1.5c0.8-0.8,1.7-1.5,2.6-2.4c-0.8-0.7-1.4-1.2-2.1-1.8c-0.3,0.4-0.7,0.9-1.1,1.4c-0.6-0.6-1-1.1-1.5-1.7
		c0.4-0.4,0.9-0.8,1.4-1.2c-0.8-0.7-1.3-1.3-2.1-2c-0.3,0.5-0.7,1-1.1,1.5c-0.6-0.6-1.1-1.1-1.6-1.7c0.5-0.4,1-0.8,1.6-1.3
		c-0.7-0.5-1.1-0.9-1.7-1.3c0.7-0.6,1.2-1.1,1.8-1.7c0.3,0.4,0.7,0.9,1.2,1.4c0.6-0.7,1.2-1.3,1.8-1.9c-0.8-0.7-1.6-1.4-2.6-2.3
		c0.7-0.6,1.3-1,1.9-1.5c0.6,0.7,1.4,1.5,2.2,2.4c0.6-0.7,1.2-1.3,1.8-2c-0.8-0.7-1.6-1.4-2.4-2.2c0.6-0.6,1.1-1,1.7-1.6
		c0.7,0.7,1.5,1.6,2.3,2.5c0.7-0.7,1.2-1.3,1.8-2c-0.8-0.7-1.7-1.5-2.5-2.2c0.6-0.7,1-1.2,1.6-1.7c0.8,0.9,1.5,1.7,2.4,2.6
		c0.7-0.8,1.2-1.4,1.8-2.1c-0.4-0.3-0.9-0.7-1.4-1.2c0.6-0.5,1.1-1,1.7-1.5c0.3,0.4,0.7,0.9,1.2,1.7c0.6-0.8,0.9-1.3,1.3-1.9
		c0.7,0.7,1.1,1.2,1.6,1.8c-0.4,0.4-0.8,0.9-1.3,1.4c0.6,0.5,1.2,1.1,1.9,1.6c0.4-0.3,0.8-0.8,1.3-1.2c0.5,0.5,0.9,1,1.5,1.6
		c-0.4,0.3-0.9,0.7-1.5,1.2c0.7,0.7,1.3,1.2,2,1.8c0.7-0.8,1.5-1.6,2.3-2.6c0.6,0.7,1,1.2,1.5,1.7c-0.8,0.7-1.6,1.5-2.5,2.3
		c0.7,0.6,1.4,1.2,2,1.7c0.3-0.3,0.8-0.7,1.2-1.1c0.5,0.5,1,0.9,1.6,1.4c-0.4,0.5-0.9,0.9-1.3,1.4c0.6,0.6,1.1,1.1,1.9,1.9
		c0.3-0.5,0.7-1,1-1.5c0.7,0.6,1.1,1.1,1.8,1.7c-0.5,0.3-1,0.7-1.7,1.2c0.8,0.6,1.3,0.9,1.8,1.3c-0.7,0.6-1.2,1-1.8,1.5
		c-0.3-0.4-0.7-0.8-1.1-1.3c-0.7,0.8-1.3,1.3-1.9,1.9c0.5,0.5,1,1,1.6,1.6c0.4-0.4,0.9-0.9,1.3-1.3c0.5,0.5,0.9,1,1.5,1.6
		c-0.4,0.3-0.9,0.7-1.5,1.1c1,0.9,1.9,1.7,2.8,2.5c-0.7,0.6-1.2,1.1-1.8,1.6c-0.7-0.7-1.5-1.6-2.3-2.4c-0.6,0.7-1.2,1.3-1.7,1.9
		C59.6,62.1,60.8,63.3,62,64.4z M45.2,44.5c-0.6-0.7-1.1-1.3-1.5-1.8c-0.6,0.6-1.2,1.1-1.7,1.6c0.6,0.5,1.1,1.1,1.7,1.7
		C44.2,45.5,44.7,44.9,45.2,44.5z M56.8,59.2c0.6-0.6,1.1-1.1,1.6-1.7c-0.5-0.5-1.1-1.1-1.6-1.6c-0.5,0.5-1.1,1-1.7,1.6
		C55.7,58.2,56.3,58.7,56.8,59.2z M35.3,50.9c0.6,0.6,1.1,1.2,1.6,1.8c0.6-0.6,1.2-1.1,1.7-1.6c-0.6-0.6-1.1-1.2-1.6-1.7
		C36.4,49.9,35.8,50.4,35.3,50.9z M50.1,49.3c-0.5,0.5-1.1,1.1-1.6,1.6c0.6,0.6,1.1,1.2,1.7,1.7c0.6-0.6,1.2-1.1,1.8-1.7
		C51.4,50.4,50.8,49.9,50.1,49.3z M46.9,39.4c-0.6,0.6-1.1,1.1-1.6,1.6c0.6,0.6,1.1,1.1,1.6,1.6c0.6-0.5,1.2-1,1.8-1.5
		C48,40.5,47.5,39.9,46.9,39.4z M46.9,49.2c0.6-0.5,1.2-1,1.7-1.5c-0.6-0.6-1.1-1.2-1.7-1.8c-0.6,0.6-1.1,1.2-1.6,1.7
		C45.8,48.1,46.3,48.7,46.9,49.2z M46.9,52.6c-0.6,0.6-1.2,1.1-1.7,1.6c0.6,0.6,1.2,1.2,1.6,1.7c0.6-0.5,1.1-1,1.7-1.6
		C48,53.7,47.5,53.2,46.9,52.6z M41.9,47.6c-0.5-0.5-1.1-1.1-1.6-1.6c-0.6,0.5-1.1,1-1.7,1.5c0.6,0.6,1.1,1.2,1.6,1.8
		C40.8,48.8,41.4,48.2,41.9,47.6z M55.2,47.6c-0.5-0.5-1.1-1.1-1.5-1.6c-0.6,0.6-1.2,1.1-1.8,1.7c0.6,0.6,1.1,1.2,1.7,1.7
		C54,48.8,54.6,48.2,55.2,47.6z M40.3,52.6c-0.6,0.6-1.1,1.1-1.7,1.6c0.6,0.6,1.2,1.2,1.7,1.7c0.6-0.6,1.2-1.1,1.7-1.6
		C41.4,53.8,40.8,53.2,40.3,52.6z M55.1,54.3c-0.5-0.6-1-1.2-1.5-1.7c-0.6,0.5-1.2,1.1-1.8,1.6c0.6,0.6,1.2,1.1,1.8,1.7
		C54.1,55.4,54.6,54.9,55.1,54.3z M48.5,44.3c0.6,0.6,1.1,1.2,1.6,1.6c0.6-0.5,1.2-1.1,1.9-1.6c-0.6-0.6-1.2-1.2-1.7-1.7
		C49.7,43.2,49.1,43.8,48.5,44.3z M43.6,52.7c0.6-0.6,1.2-1.1,1.6-1.6c-0.6-0.6-1.1-1.3-1.6-1.8c-0.6,0.6-1.2,1.1-1.8,1.7
		C42.4,51.5,43,52.1,43.6,52.7z M55.2,50.8c0.6,0.7,1.1,1.3,1.6,1.8c0.6-0.6,1.2-1.1,1.6-1.5c-0.5-0.7-1-1.3-1.6-1.9
		C56.2,49.8,55.7,50.4,55.2,50.8z M50.3,55.9c-0.6,0.6-1.2,1.2-1.7,1.6c0.5,0.5,1.1,1.1,1.5,1.6c0.6-0.5,1.2-1,1.8-1.5
		C51.3,57,50.8,56.4,50.3,55.9z"/>
	<path class="st1" d="M85,83c-1.9-1.7-3.9-1.5-6.4,0.7c-0.5-0.4-1.1-0.8-1.6-1.3c1.2-1.6,2.8-2.4,4.7-2.7c-1.4-2.4-5.3-3.7-7.9,0.4
		c-0.6-0.3-1.2-0.5-1.9-0.8c1.2-2.2,2.9-3.6,5.4-3.9c-0.9-1.1-2.6-1.5-4-0.9c-2.1,0.8-3.1,2.3-3.1,5.1c-0.6,0.1-1.3,0.3-2.1,0.5
		c0-0.8,0.1-1.4,0-2c0-0.3-0.2-0.8-0.5-1c-1.9-1-3.8-2.1-5.8-2.8c-1.4-0.5-1.9-1.7-2.5-2.8c-0.3-0.6,0.2-1.1,0.8-1.4
		c1.8-0.8,3.3-1.9,4.5-3.5c1.6-2.1,2.4-4.5,2.4-7.2c-0.1-8.1-3-15-8.6-20.8c-8.4-8.8-23.5-5.7-27.8,5.7c-2.1,5.4-1.3,12.1,3,17.2
		c-0.5,0.5-1,0.9-1.6,1.4c-1.8-2.1-3.1-4.4-3.9-7c-2.9-10,2.1-20.1,12-23.5c6.9-2.4,13.4-1.1,18.9,3.8c5.7,5.2,9,11.8,9.9,19.5
		c0.3,2.3,0.3,4.6,0.5,6.9c0.4,3.3,1.7,6.3,3.6,9.1c0.3,0.4,0.5,0.5,1,0.5c1.9-0.3,3.6,0.3,5,1.6c4,3.9,7.9,7.8,11.8,11.8
		c1.9,1.9,2.1,5,0.7,7.4c-1.4,2.5-4.1,3.8-7,3.3c-2.4-0.4-4.7-2.7-5.2-5.2c-0.6-3.6,1.5-6.9,5.1-7.7C84.4,83.1,84.7,83.1,85,83z
		 M85.5,94c2.4,0,4.5-2,4.5-4.4c0-2.4-2.1-4.5-4.4-4.5c-2.4,0-4.5,2.1-4.5,4.4C81.1,92,83.1,94,85.5,94z M61.7,71.5
		c2.5,1.2,4.8,2.3,7,3.4c0.7-0.7,1.5-1.4,2.2-2c-1.1-2.3-2.2-4.8-3.4-7.2C66.2,68.1,64.2,70.1,61.7,71.5z"/>
	<path class="st1" d="M57,79.6c-0.2-1.3-0.4-2.6-0.7-3.8c-0.1-0.2-0.3-0.6-0.5-0.7c-2.4-0.8-4.8-1.6-7.4-0.9
		c-1.7,0.5-3.3,1.3-4.5,2.6c3,1.7,6,3.5,9.1,5.2c-0.4,0.7-0.8,1.3-1.2,1.9c-3.1-1.8-5.9-3.9-9.3-5.1c-0.9,1.4-1.2,3-1.2,4.6
		c0.1,3.9,1.8,7.1,4.5,9.8c0.2,0.2,0.6,0.2,0.9,0.1c1.3-0.5,2.6-1.1,4-1.8c0.3,0.4,0.7,1,1.1,1.5c-4,3.4-12.1,4.5-18.4,0.4
		c-6.7-4.4-9.3-12.9-6.2-20.3c3.1-7.3,11-11.4,18.6-9.8c7.7,1.7,13.4,8.6,13.1,16.1C58.3,79.6,57.6,79.6,57,79.6z M43.5,94
		c-4-4.8-5.6-9.9-3.2-15.9c-0.9-0.2-1.9-0.4-2.8-0.6c-2.3,4.5-3.1,9.1-2.8,14c0,0.2,0.1,0.5,0.3,0.6C37.6,93.5,40.4,94.2,43.5,94z
		 M54.9,72.5c-1.6-2.7-3.8-4.6-6.6-5.9c-0.2-0.1-0.5,0-0.7,0.1c-1.6,1.1-3.2,2.2-4.7,3.5c-1.7,1.5-3.1,3.2-4.2,5.1
		c0.1,0.1,0.1,0.1,0.2,0.1c0.6,0.2,1.3,0.3,1.9,0.5c0.5,0.2,0.8,0.1,1.2-0.3c2.7-2.9,6-4.2,10-3.7C53,72,53.9,72.3,54.9,72.5z
		 M45.3,65.6c-3.8-0.6-7.2-0.1-10.3,1.8c-0.2,0.1-0.4,0.5-0.4,0.8c-0.2,1-0.3,1.9-0.4,2.9c-0.2,1.2-0.5,2.4-0.8,3.6
		c1.8,0.5,3.4,0.5,4.1-1.5c0-0.1,0.1-0.1,0.1-0.1C39.7,70.1,42.2,67.7,45.3,65.6z M35.3,77.1c-0.8,0-1.4-0.1-2-0.1
		c-0.3,0-0.7,0.3-0.8,0.6c-1.1,2.1-2.2,4.3-3.2,6.4c-0.1,0.2-0.3,0.5-0.2,0.7c0.7,2,1.8,3.8,3.5,5.3C32.4,85.4,33.3,81.2,35.3,77.1z
		 M28.9,74.9c0.6,0,1.2,0,1.7-0.1c0.2,0,0.5-0.3,0.6-0.5c0.4-1.5,0.8-3,1.1-4.5C30.7,71.2,29.6,72.9,28.9,74.9z M28.2,81.1
		c0.1,0,0.1,0,0.2,0.1c0.6-1.3,1.3-2.7,2-4.2c-0.7,0.1-1.2,0.1-1.7,0.2c-0.2,0.1-0.4,0.3-0.5,0.5C28.2,78.8,28.2,80,28.2,81.1z"/>
	<path class="st1" d="M61.3,81.8c1,0.3,2.1,0.4,3,0.8c0.6,0.2,1,0.2,1.6,0c4.3-1.9,9.5,0.6,10.5,5.2c0.7,3.1-0.1,5.8-2.5,7.8
		c-2.5,2-5.2,2.3-8.2,1.1c-0.5-0.2-0.8-0.2-1.2,0c-2.9,1.4-6.3,0.8-8.6-1.4c-2.2-2.1-3-5.5-1.9-8.4C55.2,83.8,58,81.9,61.3,81.8z
		 M63.5,90.3c0,0.3,0,0.5,0.1,0.8c0.6,2.1,1.9,3.4,4,4c2.1,0.5,4,0,5.5-1.6c1.2-1.3,1.2-1.4,0-2.6c-0.1-0.1-0.1-0.1-0.2-0.2
		c-1.1-1.1-2-1.1-3.2-0.1c-1.4,1.2-3,1.5-4.7,0.7C64.4,90.9,64,90.6,63.5,90.3z M63.8,87.5c0.3,0.3,0.7,0.6,1,0.9
		c1.4,1.4,2.1,1.4,3.7,0.2c1.6-1.3,3.8-1.2,5.4,0.1c0.2,0.1,0.3,0.3,0.6,0.4c-0.4-2.7-2.2-4.5-4.6-4.9
		C67.5,83.7,65.2,84.9,63.8,87.5z M63,84.4c-2.3-1.2-5.9,0.4-6.8,3.1c0.4,0.4,0.9,0.8,1.3,1.3c1.5,1.4,3.1,0.4,3.9-0.9
		C62.1,86.8,62.5,85.6,63,84.4z M61.2,91c-1.9,1-3.7,0.7-5.4-0.9c0.2,3.6,4.3,6,7.2,4.6C62.4,93.6,61.8,92.3,61.2,91z"/>
</g>
</svg>
