<?xml version="1.0" encoding="utf-8"?>
<!-- Generator: Adobe Illustrator 24.0.0, SVG Export Plug-In . SVG Version: 6.00 Build 0)  -->
<svg version="1.1" id="Слой_1" xmlns="http://www.w3.org/2000/svg" xmlns:xlink="http://www.w3.org/1999/xlink" x="0px" y="0px"
	 width="120px" height="120px" viewBox="0 0 120 120" style="enable-background:new 0 0 120 120;" xml:space="preserve">
<style type="text/css">
	.st0{opacity:0.19;fill:#FFFFFF;}
	.st1{fill:#FFFFFF;}
</style>
<circle class="st0" cx="60" cy="59.5" r="59.2"/>
<path class="st1" d="M55.8,75.8c0-7.2,7.6-11.9,14.1-8.7c1.1,0.5,1.2,0.5,1.3-0.7c0.4-3.3,0.8-6.7,1.1-10c0.3-2.5,0.6-5.1,0.9-7.6
	c0-0.1,0-0.2,0-0.3c0.1-1.2,0-1.3-1.2-1.1c-6.1,1.2-12.3,2.4-18.4,3.6c-0.8,0.2-1.7,0.3-2.5,0.5c-0.5,0.1-0.8,0.3-0.9,0.9
	c-0.5,4.5-1,9-1.5,13.5c-0.5,4.7-1.1,9.3-1.6,14c-0.2,1.7-0.3,3.5-0.7,5.2c-1,4.8-5.4,7.9-10.4,7.6c-4.5-0.3-8.3-4.1-8.8-8.7
	c-0.6-5.4,3.5-10.7,9.7-10.8c1.6,0,3.1,0.4,4.5,1.1c0.7,0.4,0.9,0.2,1-0.6c0.5-4.8,1.1-9.5,1.6-14.3c0.4-3.8,0.8-7.5,1.3-11.3
	c0.1-1,0.2-1.9,0.3-2.9c0.1-0.8,0.6-1.4,1.5-1.6c4.1-0.8,8.2-1.6,12.2-2.4c6.4-1.2,12.7-2.5,19.1-3.7c1-0.2,1.2,0,1.1,1
	c-0.3,2.6-0.5,5.1-0.8,7.6c-0.3,2.9-0.7,5.8-1,8.7c-0.4,3.4-0.8,6.7-1.1,10.1c-0.4,3.4-0.8,6.9-1.1,10.3c-0.3,2.9-0.9,5.5-3.1,7.6
	c-2.8,2.8-7.1,3.6-10.7,2C58.2,83.2,55.8,79.7,55.8,75.8z"/>
</svg>
