<?xml version="1.0" encoding="utf-8"?>
<!-- Generator: Adobe Illustrator 24.0.0, SVG Export Plug-In . SVG Version: 6.00 Build 0)  -->
<svg version="1.1" id="Слой_1" xmlns="http://www.w3.org/2000/svg" xmlns:xlink="http://www.w3.org/1999/xlink" x="0px" y="0px"
	 width="120px" height="120px" viewBox="0 0 120 120" style="enable-background:new 0 0 120 120;" xml:space="preserve">
<style type="text/css">
	.st0{opacity:0.19;fill:#FFFFFF;}
	.st1{fill:#FFFFFF;}
</style>
<circle class="st0" cx="60" cy="59.5" r="59.2"/>
<g>
	<path class="st1" d="M26.9,82.4c-0.7-3.5-1.4-6.9-2.1-10.4c1,0,1.9,0,2.8,0c0-5.7,0-11.3,0-16.9c0-2.2,0-4.5,0-6.7
		c0-0.7,0.3-1.2,1-1.4c1.3-0.5,2.5-1,3.8-1.6c0.3-0.2,0.7-0.5,0.8-0.9c0.5-1.3,1.7-1.9,2.9-1.5c1.2,0.5,1.7,1.7,1.2,2.9
		c-0.5,1.2-1.8,1.6-3.1,1c-0.3-0.1-0.7-0.2-1,0c-1.1,0.4-2.2,0.8-3.3,1.4c-0.3,0.1-0.6,0.6-0.6,0.9c0,7.6,0,15.2,0,22.9
		c19.1,0,38.2,0,57.5,0c-0.7,3.6-1.4,7-2.2,10.4c-2.9,0-5.7,0-8.6,0c-2.5,0-2.6,0-3.3,2.4c-1.6,4.9-3.2,9.9-4.7,14.8
		c-0.2,0.6-0.4,0.9-1.2,0.9c-7.3,0-14.6,0-21.9,0c-0.7,0-1-0.2-1.2-0.9c-1.7-5.4-3.5-10.8-5.2-16.3c-0.2-0.7-0.6-1-1.3-1
		c-3,0-6,0-9,0C27.6,82.4,27.3,82.4,26.9,82.4z"/>
	<path class="st1" d="M55.5,47.9c-5.4-0.1-9.7-4.5-9.5-9.8c0.2-5.2,4.4-9.8,10.5-9.3c4.8,0.4,8.9,4.5,8.8,9.9
		C65.1,43.8,60.7,48,55.5,47.9z"/>
	<path class="st1" d="M38.4,71c-0.2-2.6-0.3-5.1-0.4-7.6c-0.1-1.8-0.2-3.7-0.2-5.5c-0.1-3.2,2.1-5.4,5.2-5.4c2.5,0,4.9,0,7.4,0
		c0.3,0,0.7,0.4,1,0.6c0,0,0,0.1,0.1,0.2c1.6,2.2,1.7,4.5,0.7,7c-1.2,3.2-1.9,6.6-2.9,10c-0.1,0.3-0.4,0.7-0.7,0.7
		C45.2,71,41.8,71,38.4,71z"/>
	<path class="st1" d="M72.8,71c-3.4,0-6.7,0-10.1,0c-0.2,0-0.5-0.3-0.6-0.5c-1.3-4.5-2.5-8.9-3.8-13.4c-0.1-0.2,0-0.5,0.1-0.7
		c0.5-1.2,1.1-2.3,1.7-3.4c0.1-0.2,0.5-0.5,0.8-0.5c2.6,0,5.1-0.1,7.7,0c2.9,0.1,5.2,2.4,5,5.3c-0.2,4.3-0.5,8.7-0.7,13
		C72.9,70.8,72.9,70.8,72.8,71z"/>
</g>
</svg>
