<?xml version="1.0" encoding="utf-8"?>
<!-- Generator: Adobe Illustrator 24.0.0, SVG Export Plug-In . SVG Version: 6.00 Build 0)  -->
<svg version="1.1" id="Слой_1" xmlns="http://www.w3.org/2000/svg" xmlns:xlink="http://www.w3.org/1999/xlink" x="0px" y="0px"
	 width="120px" height="120px" viewBox="0 0 120 120" style="enable-background:new 0 0 120 120;" xml:space="preserve">
<style type="text/css">
	.st0{opacity:0.19;fill:#FFFFFF;}
	.st1{fill:#FFFFFF;}
</style>
<circle class="st0" cx="60" cy="59.5" r="59.2"/>
<g>
	<path class="st1" d="M45.8,60.6c0-0.4,0-0.7,0-1c0-4.1,0-8.2,0-12.3c0-3.8,2.6-6.4,6.4-6.4c9.6,0,19.3,0,28.9,0
		c3.7,0,6.3,2.4,6.4,6.1c0.1,6.7,0.1,13.4,0,20.1c0,3.6-2.7,6-6.3,6c-1.3,0-2.6,0-3.9,0c-0.5,0-0.9,0.1-1.2,0.5
		c-3.5,4-7.1,7.9-10.7,11.8c-0.1,0.1-0.1,0.2-0.2,0.2c-0.2,0.1-0.5,0.2-0.7,0.2c-0.1-0.3-0.3-0.5-0.2-0.8c0.5-2.4,1-4.8,1.5-7.3
		c0.3-1.6,0.6-3.1,1-4.8c-0.9,0-1.7,0-2.7,0c0,0.3,0,0.6,0,0.9c0,3.7,0,7.5,0,11.2c0,2.5-1.8,4.5-4.2,4.6c-1.9,0.1-3.9,0.1-5.8,0.1
		c-3.3,0-6.7,0-10,0c-0.3,0-0.6,0-1,0c0.3,1.4,0.5,2.6,0.8,3.9c0.3,1.5,0.6,3,0.9,4.6c0.1,0.3-0.1,0.6-0.2,0.9
		c-0.3-0.1-0.7-0.2-0.9-0.4c-2.5-2.8-5.1-5.6-7.6-8.4c-0.4-0.4-0.8-0.6-1.4-0.6c-1.7,0-3.5,0.1-5.2-0.1c-2.3-0.1-4-1.9-4.1-4.1
		c-0.1-1.3,0-2.7-0.1-4c0-5.4,0-10.8,0-16.2c0-2.5,1.3-4.2,3.6-4.8c0.5-0.1,1-0.1,1.6-0.1c5,0,10,0,14.9,0
		C45.3,60.6,45.5,60.6,45.8,60.6z M70.5,73.7c0,0,0.1,0,0.1,0.1c1.1-1.3,2.3-2.5,3.4-3.8c0.4-0.5,0.8-0.7,1.5-0.7c1.8,0,3.6,0,5.4,0
		c1.7,0,2.6-0.9,2.6-2.6c0-6.4,0-12.7,0-19.1c0-1.8-0.8-2.7-2.6-2.7c-9.5,0-19.1,0-28.6,0c-1.8,0-2.7,0.9-2.7,2.6
		c0,4.1,0,8.2,0,12.3c0,0.3,0,0.5,0,0.8c0.4,0,0.7,0,1,0c2.7,0,5.5,0,8.2,0c3.1,0,5,1.9,5,5c0,1.2,0,2.4,0,3.6c0.4,0,0.7,0,1,0
		c1.7,0,3.4,0,5.1,0c1.4,0,1.4,0.1,1.2,1.4C70.9,71.7,70.7,72.7,70.5,73.7z"/>
</g>
</svg>
