<?xml version="1.0" encoding="utf-8"?>
<!-- Generator: Adobe Illustrator 24.0.0, SVG Export Plug-In . SVG Version: 6.00 Build 0)  -->
<svg version="1.1" id="Слой_1" xmlns="http://www.w3.org/2000/svg" xmlns:xlink="http://www.w3.org/1999/xlink" x="0px" y="0px"
	 width="51px" height="55px" viewBox="0 0 51 55" style="enable-background:new 0 0 51 55;" xml:space="preserve">
<style type="text/css">
	.st0{fill:#FFFFFF;}
</style>
<g>
	<path class="st0" d="M28.1,43.7c0.4-0.9,0.9-1.9,1.3-2.9c0.7-1.5,1.2-3.1,1.9-4.6c0.7-1.6,1.5-3.1,2.1-4.6c0.3-0.8,0.8-0.7,1.3-0.4
		c2,1.2,4.1,1.8,6.4,2.3c1.2,0.3,2.5,0.5,3.5,1.2c0.8,0.5,1.3,1.5,1.7,2.4c0.7,1.5,1.2,3.1,1.6,4.7c0.3,1.2,0.5,2.4,0.7,3.6
		c0.3,1.5,0.5,3,0.8,4.5c0.3,1.4,0,2.6-1.3,3.3c-0.7,0.4-1.6,0.5-2.4,0.5c-6.1,0-12.3,0-18.4,0c-7.5,0-15,0-22.4,0
		c-0.9,0-2-0.2-2.8-0.7C1,52.5,0.7,51.3,0.9,50c0.4-1.9,0.6-3.9,1.1-5.8c0.4-1.8,1-3.5,1.6-5.3c0.5-1.3,1.1-2.5,1.7-3.7
		c0.2-0.3,0.6-0.5,1-0.7c2-0.6,4-1.1,6-1.7c1.1-0.3,2.1-0.8,3.1-1.3c1.1-0.6,1.3-0.6,1.7,0.4c1,2.1,1.8,4.3,2.8,6.4
		c0.8,1.8,1.7,3.7,2.7,5.6c0.2-0.6,0.4-1.3,0.6-1.9c0.2-0.9,0.4-1.7,0.4-2.6c0-0.4-0.2-0.8-0.5-1.1c-0.5-0.6-0.7-2.5-0.2-3.1
		c0.2-0.3,0.7-0.5,1-0.5c0.9-0.1,1.7-0.1,2.6,0c0.3,0,0.8,0.2,1,0.5c0.7,0.8,0.6,2.4-0.2,3.2c-0.5,0.5-0.6,0.9-0.3,1.6
		c0.2,0.6,0.2,1.2,0.4,1.9c0.1,0.7,0.3,1.3,0.5,2C27.9,43.8,28,43.7,28.1,43.7z"/>
	<path class="st0" d="M25.1,33.6c-3.3,0.1-5.5-1.9-7.5-4c-1.4-1.4-2.2-3.1-3-4.9c-0.3-0.7-0.8-1.2-1.2-1.9c-1.3-2-1.3-4.3-1.2-6.5
		c0.1-1,0.5-2,0.6-3c0.1-0.8,0.1-1.7,0-2.5c-0.3-3.8,2.8-7.2,5.7-8.5c2.8-1.3,5.7-1.3,8.7-1c0.2,0,0.4,0.1,0.6,0.2
		c1.5,0.5,2.9,1.1,4.4,1.5c1.8,0.4,2.9,1.6,3.8,3.2c1,1.9,1.3,3.9,1.2,6c0,0.8,0.4,1.7,0.7,2.5c0.6,1.7,0.6,3.4,0.1,5.1
		c-0.4,1.3-0.6,2.7-1.4,3.6c-1.2,1.6-1.6,3.6-2.8,5.1c-1.7,2.2-3.8,4-6.4,5C26.6,33.7,25.8,33.6,25.1,33.6z M16.8,15.3
		c-0.1,0-0.2,0-0.3,0.1c-0.3-0.3-0.5-0.7-0.8-1c-0.5-0.6-0.9-0.6-1.2,0c-1.1,2.4-0.5,4.7,0.4,6.9c0.4,1,1.5,1.6,1.8,2.8
		c0.2,0.8,0.5,1.5,0.9,2.2c1.2,2,2.8,3.6,4.9,4.5c1,0.4,2.1,0.6,3.1,0.6c0.8,0,1.5-0.5,2.3-0.9c2.9-1.6,4.7-4,5.6-7.2
		c0.1-0.3,0.2-0.7,0.5-0.8c1.2-0.6,1.5-1.9,1.7-3c0.2-1.5,0.1-3.1,0-4.6c0-0.4-0.5-0.7-0.7-1.1c-0.3,0.2-0.6,0.4-0.9,0.7
		c-0.2,0.2-0.5,0.3-0.7,0.5c-0.1-0.3-0.4-0.5-0.4-0.8c-0.1-0.8,0-1.5-0.1-2.3c-0.1-0.9-0.8-1.6-1.4-1.4c-1.8,0.5-3.5,1.1-5.3,1.5
		c-2.7,0.5-5.4,0.9-8.2,0.7c-0.8-0.1-1.1,0.3-1.1,1.1C16.9,14.3,16.9,14.8,16.8,15.3z"/>
</g>
</svg>
