<?xml version="1.0" encoding="utf-8"?>
<!-- Generator: Adobe Illustrator 24.0.0, SVG Export Plug-In . SVG Version: 6.00 Build 0)  -->
<svg version="1.1" id="Слой_1" xmlns="http://www.w3.org/2000/svg" xmlns:xlink="http://www.w3.org/1999/xlink" x="0px" y="0px"
	 width="48px" height="52px" viewBox="0 0 48 52" style="enable-background:new 0 0 48 52;" xml:space="preserve">
<style type="text/css">
	.st0{fill:#FFFFFF;}
</style>
<g>
	<path class="st0" d="M23.7,15.5c3.5-4.8,6.9-9.6,10.4-14.5c2.5,3.8,4.9,7.4,7.5,11.3c-4.2,1.6-8.1,3.1-12.3,4.7c0.4,0,0.7,0,1,0
		c4.8,0,9.5,0,14.3,0c1.2,0,2.1,0.7,2.1,2c0,3.7,0,7.3,0,11c0,1.3-0.7,1.9-2.1,1.9c-0.6,0-1.3,0-2,0c0,0.5,0,0.9,0,1.2
		c0,5.2,0,10.4,0,15.7c0,1.3-0.6,1.9-1.9,1.9c-11.5,0-23,0-34.5,0c-1.4,0-2-0.6-2-2.1c0-5.5,0-11,0-16.7c-0.7,0-1.3,0-1.9,0
		c-1.4,0-1.9-0.5-1.9-1.9c0-3.7,0-7.5,0-11.2c0-1.3,0.5-1.8,1.9-1.8c4.9,0,9.7,0,14.6,0c0.4,0,0.8,0,1.4,0C14,15.4,10,13.9,5.9,12.3
		c0.7-1.1,1.3-2.1,2-3.1c1.6-2.5,3.3-4.9,4.9-7.4c0.3-0.5,0.5-0.8,1.1,0c1.9,2.8,3.9,5.5,5.9,8.2C21,11.8,22.3,13.5,23.7,15.5z
		 M19.5,47.2c0-5.2,0-10.2,0-15.2c-4,0-7.8,0-11.7,0c0,5.1,0,10.1,0,15.2C11.7,47.2,15.6,47.2,19.5,47.2z M39.3,47.1
		c0-5.1,0-10.1,0-15.1c-4,0-7.9,0-11.9,0c0,4.9,0,9.7,0,14.5c0,0.6,0.3,0.8,0.8,0.8c3.4,0,6.8,0,10.2,0C38.8,47.2,39,47.2,39.3,47.1
		z M19.5,20.5c-5.3,0-10.6,0-15.9,0c0,2.7,0,5.3,0,7.9c5.3,0,10.6,0,15.9,0C19.5,25.8,19.5,23.2,19.5,20.5z M43.2,28.5
		c0-2.8,0-5.4,0-8.1c-5.1,0-10.1,0-15.1,0c-0.6,0-0.7,0.4-0.7,0.8c0,2.1,0,4.3,0,6.4c0,0.6,0.2,0.9,0.8,0.9
		C33.2,28.5,38.1,28.5,43.2,28.5z"/>
</g>
</svg>
