<?xml version="1.0" encoding="utf-8"?>
<!-- Generator: Adobe Illustrator 24.0.0, SVG Export Plug-In . SVG Version: 6.00 Build 0)  -->
<svg version="1.1" id="Слой_1" xmlns="http://www.w3.org/2000/svg" xmlns:xlink="http://www.w3.org/1999/xlink" x="0px" y="0px"
	 width="54px" height="51px" viewBox="0 0 54 51" style="enable-background:new 0 0 54 51;" xml:space="preserve">
<style type="text/css">
	.st0{fill:#FFFFFF;}
</style>
<g>
	<path class="st0" d="M1.2,30.7c0.1-8.6,5.8-15.4,13-17.8c4.6-1.5,9.2-1.2,13.7,0.9c1.2,0.5,1.7,1.5,1.1,2.7c-0.6,1.1-1.4,1.6-2.7,1
		c-8.4-4-18.2,0.5-20.4,9.7c-2.3,9.7,5,17.8,13.7,17.9c6.8,0.1,11.4-3.2,14.1-9.2c1.4-3.1,1.2-6.5,0.3-9.8c-0.5-1.9,0-2.9,1.3-3.2
		c1-0.2,2.3,0.8,2.6,2.3c2.4,10-1.6,19-11.1,22.7c-9.7,3.8-19.6-0.3-24-10.1C1.8,35.6,1.7,33,1.2,30.7z"/>
	<path class="st0" d="M19.9,33.2c0.5-7.5,4.7-13.1,11.2-15.3c8.7-3,17.4,1.2,20.6,9.6c3.2,8.2-0.9,17.4-8.9,20.7
		c-2.7,1.1-5.4,1.5-8.3,1.1c-1.3-0.2-2.1-0.9-1.9-2.2c0.2-1.4,1.2-1.9,2.6-1.7c3.9,0.5,7.3-0.7,10-3.5c6.9-7.1,3.2-17.4-4.8-20.3
		c-5.7-2.1-13.2,1.2-15.4,7.2c-1.1,3.1-1.1,6.3,0.3,9.4c0,0.1,0.1,0.2,0.2,0.3c1,1.9,0.8,3-0.5,3.5c-1.2,0.6-2.6,0-3.2-1.8
		C21.1,38,20.6,35.6,19.9,33.2z"/>
	<path class="st0" d="M41.9,1.2c-2.2-1.1-3.8,0-5.5,1.6c-0.3-0.3-0.4-0.5-0.6-0.6c-1.6-1.7-4-1.9-5.7-0.4c-1.4,1.2-2.1,4.7-0.9,5.9
		c2.4,2.5,5,4.7,7.6,7.1c2.1-2.1,4.5-4.2,6.7-6.7C45.2,6.3,44.8,2.6,41.9,1.2z"/>
</g>
</svg>
