<?xml version="1.0" encoding="utf-8"?>
<!-- Generator: Adobe Illustrator 24.0.0, SVG Export Plug-In . SVG Version: 6.00 Build 0)  -->
<svg version="1.1" id="Слой_1" xmlns="http://www.w3.org/2000/svg" xmlns:xlink="http://www.w3.org/1999/xlink" x="0px" y="0px"
	 width="48px" height="55px" viewBox="0 0 48 55" style="enable-background:new 0 0 48 55;" xml:space="preserve">
<style type="text/css">
	.st0{fill:#FFFFFF;}
</style>
<g>
	<path class="st0" d="M31.6,32.9c-5.9,4.2-9.7,3.5-14.6-0.1c-2.5,2.9-5.7,4.9-9.2,6.8c0-2.2-0.1-4.3,0-6.4c0.2-4,0.3-7.9,0.7-11.9
		c0.3-2.5,1-5,1.6-7.5c0.6-2.5,1.7-4.8,3.2-7c2.7-4.1,8.2-6.3,13-5.2c1.5,0.3,2.8,0.9,4.1,1.7c0.8,0.5,1.7,0.6,2.6,1
		c2,1,3.1,2.8,4.1,4.7c1.3,2.6,2,5.4,2.5,8.2c0.5,3,0.7,6,1.1,9.1c0.1,0.5,0.1,1,0.1,1.5c0,3.8,0,7.7,0,11.7
		C37.3,37.7,34.1,35.9,31.6,32.9z M25.4,17.1c-0.1,0.1-0.2,0.4-0.4,0.5c-1,0.4-2.1,1-3.2,1.1c-2,0.1-4-0.1-6-0.2
		c-1.1-0.1-2.1-0.2-3.2-0.3c-0.7-0.1-1,0.3-1.3,0.9c-0.6,0.9-0.2,1.8,0.1,2.6c0.5,1.4,1.2,2.6,2.7,3.1c0.4,0.1,0.8,0.5,1,0.9
		c0.8,1.9,1.8,3.6,3.3,5.1c2.5,2.4,6,3.3,9.1,1.9c2.7-1.2,4.4-3.4,5.6-6c0.3-0.6,0.2-1.6,1.2-1.8c2.2-0.6,3.1-3.1,3.2-4.7
		c0.1-1.2-0.6-1.8-1.9-1.9c-0.5,0-1.1-0.1-1.5-0.5c-1.4-1.2-2.8-2.5-4.3-3.7C28.6,15,27.5,16.5,25.4,17.1z M36.5,14.1
		c-0.1-1.9-1-3.6-2-4.6c-2.5-2.6-5.6-3.8-9.2-4c-2.1-0.1-4.2,0.2-6.2,0.9c-2.4,0.9-4.3,2.3-5.7,4.4c-0.8,1.2-0.9,1.9-0.8,2.9
		c2.8-4.4,7-6.1,11.9-6.1C29.6,7.7,33.7,9.4,36.5,14.1z"/>
	<path class="st0" d="M16.2,36.4c4.5,3.7,9.6,5.5,16.2,0.1c2.6,1.7,5.1,3.4,7.6,5.1c2.3,1.5,4.6,2.9,6.2,5.2
		c0.7,1.1,1.1,2.2,1.1,3.5c0,0.7-1.2,4-4.3,4s-32.8,0-36,0s-6.1-3.3-5.8-5C1.6,47.4,2.6,46,4,44.9c2.4-1.8,4.9-3.4,7.3-5.1
		C12.9,38.7,14.5,37.6,16.2,36.4z"/>
</g>
</svg>
