<?xml version="1.0" encoding="utf-8"?>
<!-- Generator: Adobe Illustrator 24.0.0, SVG Export Plug-In . SVG Version: 6.00 Build 0)  -->
<svg version="1.1" id="Слой_1" xmlns="http://www.w3.org/2000/svg" xmlns:xlink="http://www.w3.org/1999/xlink" x="0px" y="0px"
	 width="42px" height="42px" viewBox="0 0 42 42" style="enable-background:new 0 0 42 42;" xml:space="preserve">
<style type="text/css">
	.st0{fill:#FFFFFF;stroke:#FFFFFF;stroke-width:0.5;stroke-miterlimit:10;}
</style>
<path class="st0" d="M40.3,36.9c0-0.1,0-0.3,0-0.5c0-0.1,0-0.1,0-0.2c0,0,0,0,0,0c-0.2-2.7-1.4-4.9-3.7-6.2
	c-0.5-0.3-1.1-0.6-1.7-0.9c0,0,0,0,0,0c-1.4-0.6-2.8-1.1-4.2-1.7c-0.6-0.3-1.2-0.5-1.8-0.8c-0.6-0.4-0.8-0.7-0.7-1.5
	c0-0.3,0.2-0.6,0.3-0.9c0.2-0.5,0.5-0.9,0.7-1.4c0.1-0.2,0.3-0.4,0.4-0.6c0.2-0.4,0.4-0.8,0.6-1.2c0,0,0,0,0,0c0.9-1.9,1-4,1.1-6.1
	c0.2-2.1,0-4.2-0.8-6.1c-1.2-2.9-3.1-4.9-5.9-6c-1.2-0.5-2.6-0.8-3.9-0.7c-1.3,0-2.7,0.2-3.9,0.7c-2.8,1.1-4.8,3.2-5.9,6
	c-0.8,1.9-0.9,4-0.8,6.1c0.2,2.1,0.2,4.2,1.1,6.1c0,0,0,0,0,0c0.2,0.4,0.4,0.8,0.6,1.2c0.1,0.2,0.3,0.4,0.4,0.6
	c0.2,0.5,0.5,0.9,0.7,1.4c0.1,0.3,0.3,0.6,0.3,0.9c0.1,0.8,0,1.2-0.7,1.5c-0.6,0.3-1.2,0.5-1.8,0.8c-1.4,0.5-2.8,1.1-4.2,1.7
	c0,0,0,0,0,0c-0.6,0.2-1.2,0.5-1.7,0.9c-2.3,1.3-3.5,3.5-3.7,6.2c0,0,0,0,0,0c0,0.1,0,0.1,0,0.2c0,0.2,0,0.3,0,0.5
	c0,0.7,0,1.5,0,2.2c0,1.4,0.6,1.9,1.9,1.9c3.7,0,7.4,0,11.1,0c0,0,0,0,0,0c2.2,0,4.3,0,6.5,0c2.2,0,4.3,0,6.5,0c0,0,0,0,0,0
	c3.7,0,7.4,0,11.1,0c1.4,0,1.9-0.6,1.9-1.9C40.3,38.4,40.3,37.6,40.3,36.9z M36.9,38.6c-3.8-0.1-7.7-0.2-11.5-0.2
	c-1.5,0-3.1,0-4.6,0.1c-1.5,0-3.1-0.1-4.6-0.1c-3.8,0-7.7,0.1-11.5,0.2c-1.1,0-1.1,0-1.1-1.1c0-0.2,0-0.3,0-0.5c0,0,0-0.1,0-0.1
	c0.1-0.3,0.1-0.6,0.2-0.9c0.4-2.2,1.7-3.7,3.6-4.5c0.6-0.3,1.2-0.5,1.8-0.7c0.3-0.1,0.5-0.2,0.8-0.4c1.4-0.6,2.9-1.2,4.3-1.9
	c0.2-0.1,0.5-0.3,0.7-0.5c0.7-0.5,0.9-1.2,0.8-2c0.1-0.9-0.2-1.8-0.6-2.7c-0.3-0.8-0.9-1.4-1.2-2.2c-0.5-1.2-0.8-2.4-1.1-3.6
	c-0.1-0.3-0.1-0.6-0.2-0.9c-0.1-1.4-0.3-2.9-0.2-4.3c0.1-0.8,0.3-1.6,0.5-2.3c0.7-2.1,2.3-3.9,4.4-4.8c0.9-0.4,1.9-0.6,3-0.6
	c0.1,0,0.1,0,0.2,0c0.1,0,0.1,0,0.2,0c1.1,0,2.1,0.2,3,0.6c2.1,0.9,3.7,2.7,4.4,4.8c0.3,0.8,0.4,1.6,0.5,2.3
	c0.1,1.4-0.1,2.9-0.2,4.3c-0.1,0.3-0.1,0.6-0.2,0.9c-0.3,1.2-0.7,2.5-1.1,3.6c-0.3,0.8-0.9,1.4-1.2,2.2c-0.3,0.9-0.6,1.8-0.6,2.7
	c0,0.8,0.2,1.6,0.8,2c0.2,0.2,0.5,0.4,0.7,0.5c1.4,0.6,2.8,1.3,4.3,1.9c0.3,0.1,0.5,0.2,0.8,0.4c0.6,0.3,1.2,0.5,1.8,0.7
	c2,0.9,3.2,2.3,3.6,4.5c0.1,0.3,0.1,0.6,0.2,0.9c0,0.1,0,0.1,0,0.1c0,0.2,0,0.3,0,0.5C38,38.6,37.9,38.6,36.9,38.6z"/>
</svg>
