<?xml version="1.0" encoding="utf-8"?>
<!-- Generator: Adobe Illustrator 24.0.0, SVG Export Plug-In . SVG Version: 6.00 Build 0)  -->
<svg version="1.1" id="Слой_1" xmlns="http://www.w3.org/2000/svg" xmlns:xlink="http://www.w3.org/1999/xlink" x="0px" y="0px"
	 width="44px" height="33px" viewBox="0 0 44 33" style="enable-background:new 0 0 44 33;" xml:space="preserve">
<style type="text/css">
	.st0{fill:#FFFFFF;}
</style>
<g>
	<path class="st0" d="M3.4,5.3H39c1.4,0,2.5-0.9,2.5-2c0-1.1-1.1-2-2.5-2H3.4c-1.4,0-2.5,0.9-2.5,2C0.9,4.4,2,5.3,3.4,5.3z"/>
	<path class="st0" d="M3.5,32.3h37.3c1.4,0,2.6-0.9,2.6-2c0-1.1-1.2-2-2.6-2H3.5c-1.4,0-2.6,0.9-2.6,2C0.9,31.4,2,32.3,3.5,32.3z"/>
	<path class="st0" d="M3,18.3h31c1.2,0,2.1-0.9,2.1-2c0-1.1-1-2-2.1-2H3c-1.2,0-2.1,0.9-2.1,2C0.9,17.4,1.9,18.3,3,18.3z"/>
</g>
</svg>
