<?xml version="1.0" encoding="utf-8"?>
<!-- Generator: Adobe Illustrator 24.0.0, SVG Export Plug-In . SVG Version: 6.00 Build 0)  -->
<svg version="1.1" id="Слой_1" xmlns="http://www.w3.org/2000/svg" xmlns:xlink="http://www.w3.org/1999/xlink" x="0px" y="0px"
	 width="30px" height="30px" viewBox="0 0 30 30" style="enable-background:new 0 0 30 30;" xml:space="preserve">
<style type="text/css">
	.st0{fill:#4D4C8A;}
</style>
<g>
	<path class="st0" d="M7.3,1.3c0,1.1,0,2.1,0,3.2c-1.1,0-2.1,0-3.2,0c0,1.1,0,2.2,0,3.3c-0.8,0-1.6,0-2.4,0c0,0.1,0,0.2,0,0.2
		c0,2.1,0,4.2,0,6.3c0,0.6,0,8.2,0,10.9c0,0.9,0,1.9,0,2.8c0,0.3,0,0.6,0,0.9c7.1,0,14.1,0,21.2,0c0-0.8,0-1.6,0-2.4
		c1.1,0,2.2,0,3.3,0c0-1.1,0-2.1,0-3.2c1.1,0,2.1,0,3.2,0c0-7.4,0-14.7,0-22C22,1.3,14.6,1.3,7.3,1.3z M21.1,27.3
		c-5.9,0-11.9,0-17.7,0c0-0.4-0.1-0.7-0.1-1c0-0.2,0-0.3,0-0.5c0-3.3,0-14.2,0-16.2c0.1,0,0.2,0,0.3,0c1.7,0,3.5,0,5.2,0
		c4,0,8,0,12,0c0.2,0,0.2,0.1,0.2,0.2C21.1,13.4,21.1,25.6,21.1,27.3z M24.4,24.9c-0.5,0-1,0-1.5,0c0-0.1,0-0.1,0-0.2
		c0-1.1,0-12.5,0-16.6c0-0.3,0-0.3-0.3-0.3c-5.5,0-11,0-16.5,0c-0.1,0-0.2,0-0.2,0c0-0.5,0-1,0-1.5c6.2,0,12.4,0,18.6,0
		C24.4,10.6,24.4,23.1,24.4,24.9z M27.6,21.6c-0.5,0-1,0-1.5,0c0-5.7,0-11.4,0-17.1c-5.7,0-11.4,0-17.1,0c0-0.5,0-1,0-1.5
		c6.2,0,12.4,0,18.6,0C27.6,9.3,27.6,15.4,27.6,21.6z"/>
</g>
</svg>
