<?xml version="1.0" encoding="utf-8"?>
<!-- Generator: Adobe Illustrator 24.0.0, SVG Export Plug-In . SVG Version: 6.00 Build 0)  -->
<svg version="1.1" id="Слой_1" xmlns="http://www.w3.org/2000/svg" xmlns:xlink="http://www.w3.org/1999/xlink" x="0px" y="0px"
	 width="120px" height="120px" viewBox="0 0 120 120" style="enable-background:new 0 0 120 120;" xml:space="preserve">
<style type="text/css">
	.st0{opacity:0.19;fill:#FFFFFF;}
	.st1{fill:#FFFFFF;}
</style>
<circle class="st0" cx="60" cy="59.5" r="59.2"/>
<g>
	<path class="st1" d="M63.7,39.1c-0.5,1.2,0.1,1.7,1,2.2c2.4,1.4,4,3.3,4.6,6c0.3,1.1,0.2,2.2,0.2,3.4c0,0.5,0.1,0.8,0.6,1.1
		c0.9,0.5,1.3,1.4,1.3,2.3c0.1,2.5-0.5,4.8-2.4,6.3c-1.7,1.3-2.3,3.1-3.5,4.7c-2.4,3.2-5.4,5.1-9.5,4.8c-2.8-0.2-5.2-1.5-7-3.7
		c-1-1.2-1.7-2.7-2.6-4c-0.2-0.3-0.5-0.6-0.8-0.8c-1.9-1.2-3-2.9-3.4-5c-0.2-1-0.1-2,0-3c0.1-0.8,0.6-1.4,1.4-1.7
		c0.6-0.2,0.7-0.6,0.7-1.2c-0.1-2.8,0.6-5.4,2.5-7.6c0.7-0.8,1.7-1.5,2.6-2.2c0.4-0.3,0.7-0.5,0.6-1.2c-0.3-4.9,3.3-7.6,7.7-7.1
		c2.4,0.3,4.4,1.6,5.4,3.9C63.5,37.2,63.5,38.2,63.7,39.1z M62.2,48.9c-0.2,0.2-0.4,0.5-0.7,0.7c-2.9,3.1-6.4,4.6-10.7,4.1
		c-1.5-0.2-2.9-0.4-4.4-0.6c-0.4,0-0.9-0.1-1.3,0c-1,0.3-1.5,1.3-1.1,2.5c0.6,1.8,1.3,3.5,3.4,4c0.2,0,0.3,0.3,0.4,0.6
		c1,2.8,2.6,5,5.1,6.5c2.1,1.2,4.3,1.4,6.5,0.5c3.1-1.2,5-3.6,6.1-6.8c0.1-0.3,0.3-0.8,0.6-0.9c1.9-0.5,2.7-2,3.2-3.6
		c0.5-1.6-0.1-3-1.5-2.9c-1.2,0-2.1-0.5-2.9-1.2C64.1,51,63.2,50,62.2,48.9z"/>
	<path class="st1" d="M50.1,70.6c2.2,3,4.3,6,6.6,9.1c2.9-2.9,5.1-5.9,6.9-9.3c3,2.6,6.4,4.3,9.7,6.3c2,1.2,4,2.5,5.2,4.6
		c0.4,0.8,0.6,1.7,0.8,2.6c0.2,0.9-1.7,6.9-5.7,6.9s-29.6,0-32.8,0s-6.7-6.5-6.3-8c0.7-2.3,2.4-3.7,4.2-4.9c3-1.9,6.2-3.7,9.2-5.6
		C48.7,71.8,49.4,71.1,50.1,70.6z"/>
</g>
</svg>
