<?xml version="1.0" encoding="utf-8"?>
<!-- Generator: Adobe Illustrator 24.0.0, SVG Export Plug-In . SVG Version: 6.00 Build 0)  -->
<svg version="1.1" id="Слой_1" xmlns="http://www.w3.org/2000/svg" xmlns:xlink="http://www.w3.org/1999/xlink" x="0px" y="0px"
	 width="120px" height="120px" viewBox="0 0 120 120" style="enable-background:new 0 0 120 120;" xml:space="preserve">
<style type="text/css">
	.st0{opacity:0.19;fill:#FFFFFF;}
	.st1{fill:#FFFFFF;}
</style>
<circle class="st0" cx="60" cy="59.5" r="59.2"/>
<g>
	<path class="st1" d="M81.2,79.6c-1-3.7-3.5-6.1-6.6-8c-2.4-1.5-4.9-3-7.3-4.5c-1.8,3.9-4.9,5.7-9.1,5.7c-4.2,0-7.3-1.9-9.1-5.8
		c-1,0.6-1.9,1.2-2.8,1.8c-2.4,1.5-4.8,3-7.1,4.7c-2.7,2.1-4.3,4.9-4.5,8.4c-0.1,1.3,2.6,5.6,4.9,5.6s20.3,0,20.3,0s0-0.1-0.1-0.2
		c4.4,0.1,12.2,0.2,15.3,0.2c4.4,0,6.6-4.4,6.6-5C81.5,81.4,81.4,80.4,81.2,79.6z M58.1,84.7c-2.2-3.4-5.8-9.1-6.6-11.4
		c4.5,2.4,8.9,2.4,13.4-0.1C64,75.7,60.3,81.4,58.1,84.7z"/>
	<path class="st1" d="M46.4,60c0.3,0.1,0.6,0.5,0.7,0.8c1,1.9,2.1,3.6,3.8,5c1.9,1.6,4,2.4,6.6,2.6c2.2,0.2,4.1-0.3,5.9-1.3
		c2.5-1.3,4.1-3.4,5.4-5.8c0.2-0.4,0.4-1.1,0.8-1.2c1.7-0.8,2.7-2.1,3.4-3.7c1.2-2.3,1-3.8-0.9-5.6c-1-1-1.9-3.4-1.5-3
		c-0.1-2.8-0.3-5.3-1.3-7.7c-1.5-3.7-4.4-5.5-8.1-6.2c-2.7-0.4-5.4-0.4-8.1,0.5c-2.2,0.7-4.1,2-5.4,3.9c-1.8,2.8-2.4,5.9-2.3,9.1
		c0,1.2,0.2,2.4-1.4,2.8c-0.1,0-0.1,0.1-0.2,0.2c-1.2,0.9-1.4,2.2-1.2,3.6C42.9,56.6,44,58.8,46.4,60z M47,51.8
		c0.2-1.3,0.5-2.6,0.7-3.8c0.2-2.2,1.7-3.2,3.3-4.2c3.1-1.9,6.4-2.3,9.9-1.7c2.7,0.5,5,1.8,6.8,3.8c0.5,0.6,0.6,1.7,0.9,2.6
		c0.2,0.6,0.2,1.3,0.3,2.1c0.6-0.3,1.8,1.3,1.8,1.3s1.1,0.3,1.1,1.5c0.3,2.8-1.4,3.7-2.4,4.5c-0.1,0.1-0.3,0.3-0.4,0.3
		c-1.6,0-1.7,1.5-2.1,2.4c-1.4,2.7-3.3,4.8-6.2,5.7c-3,1-5.8,0.2-8.2-1.7c-1.7-1.3-3-3.1-3.7-5.2c-0.2-0.6-0.6-0.9-1.3-1.1
		c-1.4-0.4-2.1-1.7-2.6-3.1c-0.1-0.1-0.1-0.3-0.1-0.5C44.2,52.5,44.8,51.7,47,51.8z"/>
	<path class="st1" d="M53.6,56.5c1.3-0.2,2.3-0.9,2.9-2.2c0.3-0.8,0.7-1.2,1.6-1.1c0.4,0.1,0.8,0,1.1,0c1.2,3,2.8,3.5,5.2,3.2
		c1.5-0.2,3.2-2.4,3-3.9c-0.3-2.3-1.3-3.7-3.9-4c-1.8-0.2-3.5,0.8-4.3,3.4c-0.2,0-0.4,0-0.5,0c-1.1,0.1-2,0-2.4-1.4
		c-0.3-1.2-2.6-2.2-3.7-2.1c-3.1,0.5-4.8,3.6-3.1,6.3C50.4,56.3,51.9,56.7,53.6,56.5z M63.3,50.1c1.5,0.1,2.4,1,2.4,2.5
		c0.3,1.4-1.2,2.4-2.4,2.5c-1.3,0.1-2.6-1.2-2.5-2.5C60.8,51.5,61.8,50,63.3,50.1z M52.8,50.1c1.5,0,2.4,0.9,2.4,2.4
		c0,1.4-1.1,2.5-2.4,2.5c-1.3,0-2.5-1.3-2.5-2.6C50.5,51.3,51.5,49.9,52.8,50.1z"/>
</g>
</svg>
