<?xml version="1.0" encoding="utf-8"?>
<!-- Generator: Adobe Illustrator 24.0.0, SVG Export Plug-In . SVG Version: 6.00 Build 0)  -->
<svg version="1.1" id="Слой_1" xmlns="http://www.w3.org/2000/svg" xmlns:xlink="http://www.w3.org/1999/xlink" x="0px" y="0px"
	 width="120px" height="120px" viewBox="0 0 120 120" style="enable-background:new 0 0 120 120;" xml:space="preserve">
<style type="text/css">
	.st0{opacity:0.19;fill:#FFFFFF;}
	.st1{fill:#FFFFFF;}
</style>
<circle class="st0" cx="60" cy="59.5" r="59.2"/>
<g>
	<path class="st1" d="M64.1,66.7c-5.9,4.2-9.7,3.5-14.6-0.1c-2.5,2.9-5.7,4.9-9.2,6.8c0-2.2-0.1-4.3,0-6.4c0.2-4,0.3-7.9,0.7-11.9
		c0.3-2.5,1-5,1.6-7.5c0.6-2.5,1.7-4.8,3.2-7c2.7-4.1,8.2-6.3,13-5.2c1.5,0.3,2.8,0.9,4.1,1.7c0.8,0.5,1.7,0.6,2.6,1
		c2,1,3.1,2.8,4.1,4.7c1.3,2.6,2,5.4,2.5,8.2c0.5,3,0.7,6,1.1,9.1c0.1,0.5,0.1,1,0.1,1.5c0,3.8,0,7.7,0,11.7
		C69.8,71.6,66.6,69.7,64.1,66.7z M57.9,51c-0.1,0.1-0.2,0.4-0.4,0.5c-1,0.4-2.1,1-3.2,1.1c-2,0.1-4-0.1-6-0.2
		c-1.1-0.1-2.1-0.2-3.2-0.3c-0.7-0.1-1,0.3-1.3,0.9c-0.6,0.9-0.2,1.8,0.1,2.6c0.5,1.4,1.2,2.6,2.7,3.1c0.4,0.1,0.8,0.5,1,0.9
		c0.8,1.9,1.8,3.6,3.3,5.1c2.5,2.4,6,3.3,9.1,1.9c2.7-1.2,4.4-3.4,5.6-6c0.3-0.6,0.2-1.6,1.2-1.8c2.2-0.6,3.1-3.1,3.2-4.7
		c0.1-1.2-0.6-1.8-1.9-1.9c-0.5,0-1.1-0.1-1.5-0.5c-1.4-1.2-2.8-2.5-4.3-3.7C61.1,48.9,60,50.4,57.9,51z M69,48
		c-0.1-1.9-1-3.6-2-4.6c-2.5-2.6-5.6-3.8-9.2-4c-2.1-0.1-4.2,0.2-6.2,0.9c-2.4,0.9-4.3,2.3-5.7,4.4c-0.8,1.2-0.9,1.9-0.8,2.9
		c2.8-4.4,7-6.1,11.9-6.1C62.1,41.5,66.2,43.3,69,48z"/>
	<path class="st1" d="M48.7,70.2c4.5,3.7,9.6,5.5,16.2,0.1c2.6,1.7,5.1,3.4,7.6,5.1c2.3,1.5,4.6,2.9,6.2,5.2
		c0.7,1.1,1.1,2.2,1.1,3.5c0,0.7-1.2,4-4.3,4s-32.8,0-36,0c-3.2,0-6.1-3.3-5.8-5c0.4-1.8,1.3-3.3,2.8-4.3c2.4-1.8,4.9-3.4,7.3-5.1
		C45.4,72.6,47,71.4,48.7,70.2z"/>
</g>
</svg>
